<?xml version="1.0" encoding="utf-8"?>
<!-- Generator: Adobe Illustrator 21.0.2, SVG Export Plug-In . SVG Version: 6.00 Build 0)  -->
<svg version="1.1" xmlns="http://www.w3.org/2000/svg" xmlns:xlink="http://www.w3.org/1999/xlink" x="0px" y="0px"
	 viewBox="0 0 8000 3200" style="enable-background:new 0 0 8000 3200;" xml:space="preserve">
<style type="text/css">
	.st0{fill:#3E3A39;}
	.st1{fill:none;stroke:#E2C066;stroke-width:0.7181;stroke-miterlimit:10;}
	.st2{fill:#F29600;}
	.st3{fill:#1A1A1A;}
</style>
<g id="圖層_1">
</g>
<g id="圖層_3">
	<g>
		<path class="st0" d="M3979.4,2183l-300.1-315.7v199.9c0,51.8,24,77.7,72,77.7v29.7h-175.8v-29.7c39.5,0,59.3-25.9,59.3-77.7
			v-306.5c0-15.5-23.1-23.3-69.2-23.3v-31.1H3699l264.8,283.9v-181.5c0-47.5-23.8-71.3-71.3-71.3v-31.1h175.1v31.1
			c-42.9,0-64.3,23.8-64.3,71.3v367.9L3979.4,2183z"/>
		<path class="st0" d="M4359.3,2101.1c-13.2,27.3-30.3,48.5-51.2,63.6c-21,15.1-45.8,22.6-74.5,22.6c-23.5,0-44.8-3.3-63.9-9.9
			c-19.1-6.6-35.4-16.3-49.1-29.3c-13.7-12.9-24.3-29-31.8-48c-7.5-19.1-11.3-40.8-11.3-65.3c0-25.9,3.9-48.8,11.7-68.8
			c7.8-20,18.5-36.8,32.1-50.5c13.7-13.7,29.7-24,48-31.1c18.4-7.1,38.1-10.6,59.3-10.6c23.1,0,43.2,3.2,60.4,9.5
			c17.2,6.4,31.4,15.3,42.7,26.8c11.3,11.5,19.8,25.1,25.4,40.6c5.7,15.6,8.5,32.5,8.5,50.8c0,2.8,0,5.9,0,9.2s-0.2,6.6-0.7,9.9
			h-182.9c-5.2,0-7.8,1.9-7.8,5.6c0,16,1.4,31.1,4.2,45.2c2.8,14.1,7.4,26.4,13.8,36.7c6.4,10.4,14.3,18.5,24,24.4
			c9.6,5.9,21.5,8.8,35.7,8.8c17.9,0,33.8-5.7,47.7-16.9c13.9-11.3,26.2-24.5,37.1-39.6L4359.3,2101.1z M4247,1991
			c7.1,0,12.8-2,17.3-5.9c4.5-4,6.7-9.5,6.7-16.5c0-8.4-0.7-16.3-2.1-23.8c-1.4-7.5-3.8-14-7.1-19.6c-3.3-5.6-7.9-10.1-13.8-13.7
			c-5.9-3.5-13.3-5.2-22.2-5.2c-9.9,0-18.1,2.3-24.7,7c-6.6,4.7-11.9,10.7-15.9,18.2c-4,7.5-6.8,16.1-8.5,25.9
			c-1.6,9.8-2.5,19.6-2.5,29.4c0,2.8,3.5,4.2,10.6,4.2H4247z"/>
		<path class="st0" d="M4706.7,2188l-70.6-168.1l-72.7,164.5l-50.1,3.5l-102.4-247.9c-3.8-7.1-9.3-12.7-16.6-16.9
			c-7.3-4.2-16.1-6.4-26.5-6.4v-29.7h171.6v29.7c-21.2,0-31.8,5.4-31.8,16.2c0,2.4,1.4,8.7,4.2,19.1l55.8,139.1l53-113l-14.1-45.2
			c-2.4-6.6-7.3-10.9-14.8-13c-7.5-2.1-16.7-3.2-27.5-3.2v-29.7h173.7v29.7c-25,0-37.4,3.5-37.4,10.6c0,1.9,1.9,11.1,5.6,27.5
			l53,134.2l50.1-130.6c2.3-5.2,3.9-9.7,4.6-13.8c0.7-4,1.1-7.9,1.1-11.7c0-10.8-13.9-16.2-41.7-16.2v-29.7h120.8v29.7
			c-18.4,0-30.8,7.8-37.4,23.3l-99.6,244.3L4706.7,2188z"/>
		<path class="st0" d="M5081.7,1974c-9.4-24-21.2-41.8-35.3-53.3c-14.1-11.5-28.3-17.3-42.4-17.3c-6.6,0-13.2,0.7-19.8,2.1
			c-6.6,1.4-12.6,3.8-18,7.1c-5.4,3.3-9.9,7.5-13.4,12.7c-3.5,5.2-5.3,11.3-5.3,18.4s3.5,13.3,10.6,18.7c7.1,5.4,15.5,10,25.4,13.8
			c9.9,3.8,20,7.1,30.4,9.9c10.4,2.8,18.8,5.2,25.4,7.1c10.4,3.8,20.6,7.8,30.7,12c10.1,4.2,19.1,9.5,26.8,15.9
			c7.8,6.3,14,14.2,18.7,23.6c4.7,9.4,7.1,21.2,7.1,35.3c0,16-3,30.3-8.8,43.1c-5.9,12.7-13.9,23.7-24,32.8
			c-10.1,9.2-21.9,16.3-35.3,21.2c-13.4,4.9-27.7,7.4-42.7,7.4c-15.1,0-27.1-1.3-36-3.9c-9-2.6-17.2-6.7-24.7-12.4
			c-5.6,4.2-12.2,7.5-19.8,9.9c-7.5,2.4-18.1,4-31.8,4.9c-2.8-16.9-4.6-35.3-5.3-55.4c-0.7-20-1.1-40.7-1.1-61.8h33.2
			c4.7,16.9,9.5,31,14.5,42c4.9,11.1,10.6,19.9,16.9,26.5c6.4,6.6,13.8,11.2,22.3,13.8c8.5,2.6,18.6,3.9,30.4,3.9
			c34.8,0,53-11.3,54.4-33.8c0-13.1-4.1-23.3-12.4-30.3c-8.2-7.1-18.5-12.9-30.7-17.6c-12.3-4.7-25.7-9-40.3-13
			c-14.6-4-28-9.3-40.3-15.9c-12.2-6.6-22.5-15.4-30.7-26.4c-8.2-11-12.4-26.2-12.4-45.4c0-26.8,9.3-49.4,27.9-68
			c18.6-18.6,45.8-27.8,81.6-27.8c10.3,0,20.1,1,29.3,3.2c9.2,2.1,18.5,6,27.9,11.6c3.3-2.4,7.8-4.9,13.4-7.8
			c5.6-2.8,13.2-4.7,22.6-5.7c4.7,17.9,7.5,34.9,8.5,50.8c0.9,16,1.4,32,1.4,48H5081.7z"/>
		<path class="st0" d="M5170,2174.6v-21.2c41.4,0,62.1-12.7,62.1-38.2v-333.9c0-35.8-23.3-53.8-69.9-53.8v-21.2H5367v21.2
			c-43.3,0-65,17.9-65,53.8v333.9c0,19.8,15.3,29.7,45.9,29.7h32.5c21.6,0,40.5-1.5,56.5-4.6c16-3,29.7-7.4,41-13.1
			c20.7-11.3,39.3-44.9,55.8-101l19.1,2.8l-21.2,145.5H5170z"/>
		<path class="st0" d="M5798.3,2104.7c-12.3,26.4-28.7,46.8-49.4,61.4c-20.7,14.6-45.2,21.9-73.4,21.9c-23.5,0-44.3-4-62.1-12
			c-17.9-8-32.8-18.8-44.8-32.5c-12-13.7-21.1-29.9-27.2-48.7c-6.1-18.8-9.2-38.8-9.2-60c0-21.2,3.3-41.4,9.9-60.7
			c6.6-19.3,15.9-36.5,27.9-51.6c12-15.1,26.5-27.1,43.4-36c16.9-9,35.8-13.4,56.5-13.4c12.7,0,26,1.5,39.9,4.6
			c13.9,3.1,26.9,9.1,39.2,18c12.2,9,22.8,21.8,31.8,38.5c8.9,16.7,14.8,38.7,17.7,66c0,5.7-0.7,10.9-2.1,15.6h-187.8
			c-8.9,0-13.4,3.5-13.4,10.6c0,16.9,2.4,33,7.1,48c4.7,15.1,11.3,28.2,19.8,39.5c8.5,11.3,18.8,20.1,31.1,26.5
			c12.2,6.4,25.9,9.5,41,9.5c19.8,0,36.8-5.7,51.2-16.9c14.4-11.3,26.9-24.5,37.8-39.6L5798.3,2104.7z M5702.3,1994.5
			c19.3,0,29-9.9,29-29.7c-1.4-17.9-7.4-33.5-18-47s-26-20.1-46.3-20.1c-10.8,0-20.7,2.5-29.7,7.4s-16.6,11.5-22.9,19.8
			c-6.4,8.2-11.2,17.7-14.5,28.3c-3.3,10.6-4.9,21.5-4.9,32.8c0,5.6,5.2,8.5,15.5,8.5H5702.3z"/>
		<path class="st0" d="M5969.9,2188c-22.1,0-42.4-4.1-60.7-12.4c-18.4-8.2-34-19.3-47-33.2c-13-13.9-22.9-30.1-30-48.7
			c-7.1-18.6-10.6-38.2-10.6-59c0-24.5,4-46.7,12-66.7c8-20,18.8-37.1,32.5-51.2c13.7-14.1,29.7-24.9,48-32.5
			c18.4-7.5,37.9-11.3,58.6-11.3c21.2,0,40.7,4.1,58.6,12.4c17.9,8.2,33.3,19.3,46.3,33.2c12.9,13.9,23,30.1,30,48.7
			c7.1,18.6,10.6,38.3,10.6,59c0,25-4,47.4-12,67.4c-8,20-18.8,37-32.5,50.8c-13.7,13.9-29.4,24.6-47.3,32.1
			C6008.5,2184.2,5989.7,2188,5969.9,2188z M5972.7,2163.3c18.4,0,32.9-4.1,43.5-12.3c10.6-8.2,18.7-18,24.3-29.2
			c5.7-11.3,9.3-23,10.9-35.2c1.7-12.2,2.5-22.3,2.5-30.3c0-15.5-1-32.5-2.8-51.1c-1.9-18.5-5.8-35.7-11.6-51.4
			c-5.9-15.7-14.4-29-25.4-39.8c-11.1-10.8-25.8-16.2-44.1-16.2c-18.8,0-33.7,4.1-44.5,12.3c-10.8,8.2-19.1,18-24.7,29.2
			c-5.7,11.3-9.3,23-10.9,35.2c-1.7,12.2-2.5,22.3-2.5,30.3c0,15.5,0.9,32.5,2.8,51.1c1.9,18.6,5.8,35.7,11.6,51.4
			c5.9,15.7,14.5,29,25.8,39.8C5938.8,2157.9,5953.9,2163.3,5972.7,2163.3z"/>
		<path class="st0" d="M6137.2,2303.1v-18.3c25.4,0,38.1-7.1,38.1-21.2v-312.1c0-21.6-14.4-32.5-43.1-32.5v-13.4l99.6-32.5
			c1.9,5.2,2.8,12.5,2.8,21.9v34.6c8.9-19.8,21.9-34.1,38.8-43.1c16.9-9,34.4-13.4,52.2-13.4c23.1,0,42.8,5.3,59.3,15.9
			c16.5,10.6,29.9,23.4,40.2,38.5c10.4,15.1,17.9,31.2,22.6,48.4c4.7,17.2,7.1,32.4,7.1,45.5c0,20.2-3.1,39.7-9.2,58.3
			c-6.1,18.6-14.7,35.3-25.8,50.1c-11.1,14.8-24.6,26.9-40.6,36.4c-16,9.4-33.9,14.8-53.7,16.2c-23.1,0-41.3-2.6-54.7-7.8
			c-13.4-5.2-24.8-12.2-34.3-21.2l-2.1,2.8c1.4,2.8,2.1,11.5,2.1,26.1v78.4c0,16,18.8,24,56.5,24v18.3H6137.2z M6234.7,2053.8
			c1.4,14.1,3.5,27.2,6.3,39.2c2.8,12,7.2,22.5,13.1,31.4c5.9,9,13.7,16,23.3,21.2c9.6,5.2,22.2,7.8,37.8,7.8
			c14.6,0,27.1-3.3,37.4-9.9c10.4-6.6,18.7-15.4,25.1-26.5c6.3-11.1,10.9-23.5,13.8-37.4c2.8-13.9,4.2-28.1,4.2-42.7
			c0-14.1-1.9-28.7-5.7-43.8c-3.8-15-9.4-28.6-16.9-40.6c-7.5-12-17.1-21.9-28.6-29.7c-11.5-7.8-25.1-11.6-40.6-11.6
			c-16.9,0-30.1,4.5-39.5,13.4c-9.4,9-16.4,19.3-20.8,31.1c-4.5,11.8-7.1,23.4-7.8,35c-0.7,11.5-1.1,19.9-1.1,25.1V2053.8z"/>
		<path class="st0" d="M6768.6,2144.9c-7.1,25-25.9,37.4-56.5,37.4c-26.8,0-43.8-15.3-50.8-45.9c-33.9,30.6-69.9,45.9-108,45.9
			c-25,0-43.3-5.3-55.1-15.9c-11.8-10.6-17.7-27.4-17.7-50.5c0-57.9,58.4-97.5,175.1-118.6v-27.5c0-46.1-18-69.2-54-69.2
			c-15.6,0-29.1,2.6-40.5,7.8c-11.4,5.2-17.1,15.1-17.1,29.7c2.8,1.9,4.9,4.8,6.4,8.8c1.4,4,2.1,8.1,2.1,12.4
			c0,17.9-10.8,26.8-32.5,26.8c-8,0-14.8-2.6-20.5-7.8c-5.7-5.2-8.5-13.2-8.5-24c0-10.8,3.3-21.2,9.9-31.1
			c6.6-9.9,15.2-18.5,25.9-25.8c10.6-7.3,22.9-13.2,36.8-17.7c13.9-4.5,28.2-6.7,42.9-6.7c39.2,0,67.1,7.3,83.6,21.9
			c16.5,14.6,24.8,38.8,24.8,72.7v153.2c0,17.4,8,26.1,24,26.1c7.5,0,14.8-2.6,21.9-7.8L6768.6,2144.9z M6658.4,2021.3
			c-14.7,1.4-29.1,3.9-43.3,7.4c-14.2,3.5-26.9,8.5-38,14.8c-11.1,6.4-20.1,14.5-27,24.4c-6.9,9.9-10.3,22.1-10.3,36.7
			c0,30.6,14.9,45.9,44.8,45.9c13.3,0,24.3-2,33-6c8.8-4,15.9-9.3,21.3-15.9s9.7-13.9,12.8-21.9c3.1-8,5.3-16,6.7-24V2021.3z"/>
		<path class="st0" d="M6779.1,2174.6v-21.2c30.6,0,45.9-13.4,45.9-40.2v-148.3c0-33.9-16.3-50.8-48.7-50.8v-19.1
			c17.9-3.8,36-7.4,54.2-10.9c18.3-3.5,36.2-7.2,53.8-10.9v67.8l3.5,2.8c1.4-6.1,4.6-13.2,9.5-21.2c4.9-8,11-15.7,18.3-23
			c7.2-7.3,15.3-13.5,24.2-18.7c8.9-5.2,18.3-7.8,28.1-7.8c35.6,0,53.4,16.2,53.4,48.7c0,26.8-10.8,40.3-32.5,40.3
			c-19.3,0-29-8.7-29-26.1c0-7.5,0.7-13.2,2.1-16.9h-12.6c-14,0-25.2,4.5-33.6,13.4c-8.4,8.9-14.8,19.8-19.2,32.5
			c-4.4,12.7-7.5,26-9.1,39.9c-1.6,13.9-2.7,25.5-3.2,35v75.6c0,25.4,18.1,38.1,54.4,38.1v21.2H6779.1z"/>
		<path class="st0" d="M7356.1,2168.9c-7.5,1.9-19.7,3.7-36.4,5.3c-16.7,1.6-37.8,4.3-63.2,8.1l-7.8-45.9
			c-8.5,15.5-20.7,27.9-36.7,37.1c-16,9.2-34.4,13.8-55.1,13.8c-17.4,0-34-2.9-49.8-8.8c-15.8-5.9-29.6-14.8-41.3-26.8
			c-11.8-12-21.2-27.3-28.2-45.9c-7.1-18.6-10.6-40.6-10.6-66c0-23.5,3.8-45.5,11.3-66c7.5-20.5,17.9-38.1,31.1-53
			c13.2-14.8,28.8-26.5,47-34.9c18.1-8.5,37.8-12.7,59-12.7c16.9,0,31.7,3.4,44.1,10.2c12.5,6.8,22.2,14.3,29.3,22.3v-153.2
			c0-16-18.1-24-54.4-24v-21.9l113-18.3c0.9,17.4,1.6,37.7,2.1,60.7c0.5,23.1,0.7,47.6,0.7,73.5v266.2c0,39.6,16.2,60.3,48.7,62.2
			L7356.1,2168.9z M7178.1,2152c15.5,0,28-2.8,37.4-8.5c9.4-5.6,16.7-14,21.9-25.1c5.2-11,8.7-24.5,10.6-40.2
			c1.9-15.8,2.8-33.8,2.8-54c0-82.4-26.8-123.6-80.5-123.6c-13.7,0-25.5,3.4-35.7,10.2c-10.1,6.8-18.5,15.8-25.1,26.8
			c-6.6,11.1-11.5,23.4-14.8,37.1s-4.9,27.3-4.9,41c0,16.5,1.5,32.7,4.6,48.7c3.1,16,8,30.6,14.8,43.8c6.8,13.2,15.9,23.8,27.2,31.8
			C7147.7,2148,7161.6,2152,7178.1,2152z"/>
		<path class="st0" d="M3706.9,871.2h385.1c1.8,0,8.9-9.8,22.2-27.5c16.9-20.4,26.6-31.1,30.2-31.1c8.9,0,23.1,10.6,42.6,31.1
			c19.5,21.3,30.2,33.7,30.2,38.1c0,9.8-5.3,14.2-14.2,14.2h-263.5v62.1h218.3c10.7-9.8,19.5-17.8,27.5-24.8
			c10.6-10.6,19.5-16.9,24.8-16.9c7.1,0,24.8,12.4,52.3,35.5c24.8,21.3,37.3,35.5,37.3,44.4c0,7.1-7.1,11.5-20.4,13.3
			c-16,0-25.7,1.8-27.5,3.5c-26.6,14.2-58.6,28.4-95.8,40.8c0.9,2.7,1.8,4.4,1.8,4.4c0,9.8-4.4,14.2-13.3,14.2h-107.4
			c-31.9,0-54.1,1.8-66.5,3.5l-13.3-34.6c17.7,4.4,44.4,6.2,79.9,6.2c0.9,0,8-8.9,22.2-25.7c16-19.5,25.7-29.3,29.3-29.3
			c8.9,0,22.2,9.8,41.7,29.3c3.5,4.4,7.1,8,10.6,11.5c10.6-16.9,19.5-33.7,27.5-51.5h-228.9v208.5c0,11.5-16,19.5-46.1,24.8
			c-14.2,1.8-24,2.7-30.2,2.7c-16,0-24-8.9-24-27.5c4.4-31.9,7.1-79,7.1-139.3v-69.2h-260.9c-0.9,33.7-2.7,57.7-4.4,71.9
			c-3.5,24.8-10.6,41.7-19.5,51.5c-5.3,6.2-11.5,8.9-16.9,8.9c-19.5,0-35.5-5.3-48.8-17.7c-11.5-9.8-16.9-24-16.9-41.7
			c0-8,7.1-17.7,23.1-30.2c16.9-11.5,30.2-24.8,39.9-39c8.9-13.3,16.9-33.7,23.1-62.1l21.3,3.5v31.1h260V896h-139.3
			c-50.6,0-86.1,0.9-107.4,2.7l-13.3-34.6C3613.7,869.4,3653.6,871.2,3706.9,871.2z M3700.6,1141.8c1.8-0.9,8.9-9.8,22.2-25.7
			c16-19.5,25.7-30.2,29.3-30.2c8.9,0,22.2,10.6,41.7,30.2c17.7,19.5,27.5,31.9,27.5,36.4c0,8.9-4.4,13.3-13.3,13.3h-107.4
			c-60.3,0-103.8,1.8-128.7,3.5l-13.3-34.6C3590.6,1140,3638.5,1141.8,3700.6,1141.8z M3687.3,1235h366.4
			c13.3-14.2,25.7-26.6,38.1-37.3c8.9-8.9,16.9-14.2,24-14.2s24.8,8.9,52.3,24.8c31.9,21.3,48.8,36.4,48.8,44.4s-6.2,16-18.6,24
			c-8.9,7.1-12.4,16-12.4,24.8v58.6c0,27.5,0.9,64.8,2.7,110.9c0,11.5-15.1,19.5-43.5,24.8c-13.3,1.8-23.1,2.7-29.3,2.7
			c-16,0-24-8.9-24-27.5v-7.1H3926v17.7c0,24.8,6.2,39.9,19.5,46.1c13.3,3.5,52.3,5.3,118,5.3c45.3-1.8,76.3-3.5,93.2-7.1
			c25.7-0.9,42.6-14.2,49.7-40.8l27.5-87l21.3,3.5c2.7,63,5.3,94.1,7.1,94.1c2.7,12.4,8,21.3,16.9,26.6c16,8.9,24,17.7,24,24.8
			c0,19.5-8.9,34.6-24.8,45.3c-24,10.6-55,17.7-94.1,20.4c-28.4,4.4-69.2,7.1-120.7,7.1c-72.8,0-124.2-1.8-156.2-4.4
			c-27.5-5.3-44.4-12.4-50.6-20.4c-19.5-14.2-28.4-39.9-28.4-79v-52.3h-152.6v34.6c0,11.5-14.2,20.4-41.7,25.7
			c-12.4,1.8-22.2,1.8-27.5,1.8c-18.6,0-27.5-8.9-27.5-27.5c1.8-30.2,3.5-59.4,3.5-89.6v-90.5c0-42.6-2.7-84.3-7.1-125.1
			C3611.9,1203.9,3649.2,1218.1,3687.3,1235z M3697.1,1047.8c1.8,0,8.9-8.9,22.2-25.7c16-19.5,25.7-29.3,29.3-29.3
			c8.9,0,22.2,9.8,41.7,29.3c17.7,20.4,27.5,32.8,27.5,36.4c0,9.8-4.4,14.2-13.3,14.2h-107.4c-44.4,0-75.4,1.8-94,3.5l-13.3-34.6
			C3614.6,1046,3650.1,1047.8,3697.1,1047.8z M3828.4,1332.6v-72.8h-152.6v72.8H3828.4z M3828.4,1439.9v-83.4h-152.6v83.4H3828.4z
			 M3926,1332.6h165.9v-72.8H3926V1332.6z M3926,1439.9h165.9v-83.4H3926V1439.9z M4109.7,1134.7c1.8,0,8.9-8,21.3-24
			c14.2-18.6,23.1-28.4,26.6-28.4c8,0,21.3,9.8,39,28.4c17.8,18.6,27.5,30.2,27.5,34.6c0,8.9-3.5,13.3-10.7,13.3h-103.8
			c-67.4,0-114.5,1.8-142.9,3.5l-13.3-34.6C3989,1132.9,4041.3,1134.7,4109.7,1134.7z"/>
		<path class="st0" d="M5296.5,878.3h346c9.8-8,17.8-15.1,24.8-20.4c17.7-14.2,31.9-21.3,41.7-21.3c10.6,0,31.9,13.3,63,39.9
			c31.9,25.7,47.9,43.5,47.9,54.1c0,8.9-13.3,13.3-38.2,15.1c-22.2,1.8-36.4,4.4-41.7,8.9c-63,38.1-117.1,68.3-161.5,91.4
			c8,3.5,12.4,6.2,12.4,8.9c0,10.7-8.9,20.4-24.8,29.3c-10.6,3.5-16.9,11.5-16.9,23.1v96.7h159.7c1.8-0.9,13.3-15.1,34.6-41.7
			c24.8-31.9,39.9-47.9,44.4-47.9c12.4,0,33.7,15.1,62.1,45.3c28.4,30.2,42.6,48.8,42.6,55c0,9.8-7.1,14.2-21.3,14.2h-322.1v262.6
			c0,57.7-16.9,94.9-50.6,110.9c-39,18.6-68.3,28.4-87.8,28.4c-9.8,0-17.7-11.5-23.1-32.8c-9.8-35.5-51.5-63.9-126-88.7l3.5-21.3
			c49.7,9.8,92.3,14.2,127.8,14.2c18.6,0,32.8-2.7,41.7-8c7.1-3.5,10.6-12.4,10.6-26.6v-238.7h-225.4c-47.9,0-86.9,2.7-118,6.2
			l-14.2-41.7c53.2,7.1,101.2,10.6,145.5,10.6h212.1v-31.1c0-58.6-3.5-109.1-10.6-152.6c28.4,4.4,55,8.9,78.1,12.4
			c8,1.8,15.1,2.7,21.3,3.5c36.4-37.3,73.6-81.6,111.8-134h-349.6c-38.1,0-73.6,2.7-107.4,7.1l-14.2-41.7
			C5210.5,874.7,5251.3,878.3,5296.5,878.3z"/>
		<g>
			<path class="st0" d="M6728.8,926.2c21.3,8.9,38.2,16.9,48.8,24.8c10.6,10.7,16.9,23.1,18.6,35.5c10.7-16,21.3-31.9,31.9-49.7
				c24.8,12.4,46.1,24,63.9,32.8c18.6,10.6,31.9,18.6,39.9,24c15.1-49.7,27.5-107.4,38.2-171.2c31.9,9.8,62.1,18.6,92.3,27.5
				c28.4,8.9,43.5,18.6,43.5,28.4s-8.9,16-24.8,17.8c-16,2.7-25.7,6.2-27.5,9.8c-12.4,33.7-24.8,63.9-38.2,90.5h166.8
				c16-17.7,26.6-29.3,33.7-35.5c12.4-10.7,20.4-16.9,24.8-16.9c8.9,0,25.7,8.9,50.6,25.7c28.4,21.3,43.5,37.3,43.5,47
				c0,7.1-7.1,14.2-20.4,22.2c-10.7,5.3-15.1,10.6-15.1,16c-0.9,150.8-7.1,271.5-17.7,362c-14.2,81.6-29.3,133.1-46.1,156.2
				c-12.4,17.8-29.3,31.1-50.6,40.8c-21.3,8.9-38.1,13.3-51.5,13.3c-8.9,0-16.9-12.4-24-36.4c-8.9-31.9-46.1-58.6-110.9-81.6
				l3.5-14.2c60.3,14.2,102,21.3,124.2,21.3c17.8,0,31.9-16.9,41.7-50.6c6.2-29.3,12.4-83.4,19.5-163.3
				c7.1-104.7,11.5-198.8,11.5-282.2h-196.1c-10.6,18.6-20.4,35.5-31.1,49.7c-29.3,44.4-68.3,88.7-116.2,134l-13.3-13.3
				c34.6-61.2,61.2-118,80.7-169.5c0-1.8,0.9-2.7,1.8-4.4h-2.7l-31.1-3.5c-40.8,42.6-82.5,78.1-126.9,108.2
				c40.8,39,69.2,77.2,86.1,112.7c13.3,26.6,23.1,57.7,28.4,92.3c5.3,27.5,8.9,52.3,8.9,75.4c0,62.1-7.1,107.4-20.4,136.6
				c-15.1,31.9-33.7,55-55,70.1c-20.4,14.2-35.5,22.2-46.1,22.2c-7.1,0-15.1-12.4-22.2-35.5c-10.7-26.6-45.3-49.7-102.9-69.2
				l3.5-16.9c41.7,9.8,69.2,14.2,83.4,14.2c27.5,0,45.3-8,53.2-24c8-15.1,12.4-47.9,12.4-97.6V1384c-28.4,25.7-56.8,47.9-85.2,65.7
				c-45.3,28.4-104.7,56.8-178.3,83.4l-7.1-16.9c49.7-31.9,93.2-65.7,129.5-101.1c39.9-33.7,84.3-82.5,133.1-147.3
				c-0.9-5.3-1.8-10.6-1.8-16c-0.9-3.5-1.8-8-1.8-11.5c-31.9,34.6-63.9,63-96.7,86.1c-37.3,25.7-87,50.6-148.2,75.4l-7.1-17.7
				c40.8-29.3,76.3-59.4,105.6-91.4c33.7-31.9,72.8-81.6,116.2-147.3c-1.8-3.5-4.4-7.1-6.2-10.6c-46.1,30.2-113.6,56.8-201.4,79.9
				l-3.5-14.2c80.7-47,141.1-89.6,181-127.8c6.2-5.3,12.4-11.5,18.6-17.8h-1.8c-7.1,0-12.4-10.6-16.9-32.8
				c-5.3-29.3-15.1-57.7-28.4-84.3c-55.9,16.9-108.2,27.5-156.2,31.1L6530,951c60.3-19.5,104.7-39,134-60.3
				c30.2-17.7,62.1-45.2,94.9-81.6c25.7,19.5,46.1,35.5,62.1,46.1c23.1,17.7,34.6,30.2,34.6,37.3c0,7.1-4.4,9.8-13.3,9.8l-38.1-3.5
				C6777.6,909.3,6752.7,919.1,6728.8,926.2z"/>
			<path class="st0" d="M6659.5,1013.2c12.4,12.4,19.5,25.7,19.5,41.7c0,16.9-7.1,32.8-21.3,47c-9.8,10.6-22.2,16-37.3,16
				c-7.1,0-12.4-10.6-16.9-33.7c-6.2-31.1-16.9-61.2-31.9-91.4l7.1-14.2C6617,989.2,6643.6,1000.7,6659.5,1013.2z"/>
			<g>
				<path class="st0" d="M7588.5,1038.4c-42.7-24.5-72.1-34.4-86.3-30.1c-5,1.5-16.7,24.9-34,69.8c-15.1,37.6-23.3,57.7-25,59.4
					l-145.5,44l-36.2,11l-118.1,35.8l-87.7,26.5l-153.6,46.5c-50.5,15.3-106.2,27.7-169.3,38l30.5,42.5
					c34.1-14.7,77.6-31.2,132.1-47.7l237.9-72l18.5-5.6l118.1-35.8l55.4-16.8l311-94.1c16.2-4.9,22.7-12.4,19.3-23.5
					C7653.7,1079.3,7631.1,1063,7588.5,1038.4z"/>
			</g>
		</g>
		<g>
			<path class="st1" d="M1748.4,1208.7"/>
			<path class="st0" d="M4089.2,2518.2c-30.1-10.8-63.7-20.5-97.2-36.4c-33.8-16-69.4-35.6-107.8-56.4
				c-38.5-20.6-80.2-42.6-127.9-58.5c-47.9-16.8-101.2-23.4-153.9-21.8c-105.5,3.5-198.4,33.2-281.1,54.2
				c-82.6,22.8-156.9,34-221.3,39.3c-60,0.6-122.6-5.9-186.5-16.5c-63.9-11.3-128.5-29.3-193-51.5c-43.5-15-86.1-32.8-129.5-51.6
				c-31.3,18.6-57.4,36-80.4,48.4c62.1,23.3,126,47.7,190,65.7c68.7,19.5,137.6,34.2,205.1,42c67.6,7,133.3,9.7,195.7,5
				c66.6,0,147.7-8,232.5-28.4c47.5-10.5,190.2-20.2,190.2-20.2s38.2-26.8,79.8-28c47.4-1.4,92.8,3.9,134.5,17.8
				c42.5,13.3,82.4,32.8,121.1,51.9c38.7,19.2,76.3,37.9,113.3,53c37.3,15.3,73.7,23.3,106.3,32c16.6,3,32.6,5.2,47.6,7.5
				c7.5,1.1,14.8,2.2,21.8,3.2c7.1,1,14,0.9,20.7,1.3c13.3,0.5,25.7,1,37.1,1.4c5.7,0.1,11.1,0.3,16.3,0.4c5.2-0.1,10.1-0.6,14.8-1
				c37.4-3,57.7-6.6,57.5-10.6C4295.1,2550.3,4212.6,2552.7,4089.2,2518.2z"/>
			<path class="st2" d="M2844.4,1938.7c-1.2-28.7-8.7-56.9-31.4-70.9c-33.9-20.9-77,14.2-104.4,31.8c-10.5,6.7-21,13.5-31.9,19.5
				c-19,10.5-38.6,20-58.4,29.1c-12.3,5.7-24.7,11.2-37.1,16.7c-28.4,12.6-57.3,24.1-86.5,34.7c-8.1,2.9-16.3,5.8-24.5,8.6
				c-60,20.4-122.1,37.9-185.5,43c-79.6,6.4-142.8-53-182.3-116.8c-25.7-41.5-39.9-90-53.9-136.5c-15.6-51.7-31.4-103.7-38.7-157.3
				c-7.3-53.5-3.5-106.5,7.8-159.1c6.6-30.6,14.9-60.9,23.4-91c9.9-35.3,20.3-70.4,34.4-104.3c18.1-43.4,45.8-105.3,5.1-145.1
				c-34.1-33.4-79.1-3.9-108.2,19.1c-59.2,46.8-115.3,97.7-160.5,158.4c-47.6,63.9-85.1,137.3-113.8,211.4
				c-8.3,21.5-15.8,43.4-22.3,65.5c-6.6,22.3-12.1,44.8-16.4,67.7c-5.5,29.1-8.5,58.7-8.5,88.4c0.1,66.4,17.2,138.6,52.4,195.3
				c6.3,10.1,11.4,15.7,15.5,15.1c3.9-0.6,6.3-8.1,6.4-21.3c-0.1-12.7-2.2-30.4-5.2-51.3c-13.4-94.3-17.1-195.3,9.5-287.8
				c29.8-103.5,106.3-185.1,178.9-261.1c3.2-3.3,29.8-23.1,29.8-25l6.1-5.7c1.6-1.5,3.4-3.7,5.9-3.7c7.5-0.1,3.5,13,2.7,16.4
				c-5,19.7-9.3,39.3-11.9,59.5c-2.6,20.4-4.7,40.8-5.6,61.3c-0.3,5.8-0.5,11.6-0.5,17.4c-0.1,10.7,0,21.5,0.6,32.3
				c1.5,28.4,4.7,53,9,73.1c-2.1,24.6-2.9,52.5-0.8,83c2.6,38,8.8,79.6,20.1,122.1c13.9,52.8,34.5,104.2,61.9,151.5
				c33.2,57.2,55.3,119.7,98.9,170.6c49.3,57.5,121.4,69.6,193.7,64.7c19.2-1.3,38.4-4.3,57.3-8c32.1-6.2,64-15.7,94.7-27
				c57.5-21.2,114-46.4,164.8-81c14.6-9.9,28.6-20.7,41.9-32.2c18.1-15.7,35.3-32.4,53.9-47.4c12.9-10.5,38.1-30.2,54.7-15.7
				c17.9,15.6,1.3,44.5-5.4,61.4c-13.9,35-27.5,70.3-45.6,103.5c-18.3,33.6-41.1,64.8-64.6,94.9c-9,11.5-18.1,22.8-27.3,34.1
				c-26.7,32.5-44,53.1-39.4,59.8c4.5,6.6,31.6-3,67.7-29.9c78.9-58.7,144.5-150.2,165.2-247.3
				C2841.6,1996.1,2845.6,1966.2,2844.4,1938.7z"/>
			<path class="st3" d="M3423.9,2140.7c-0.8-1.8-6.4-1.9-15.5-0.6c-9.5,0.2-22.7,1.6-39.9-1.2c-34.3-4.4-82.4-22.3-138.7-53.5
				c-28.5-15.3-59.3-33.9-91.9-53c-16-10.2-32.6-20.8-49.6-31.7c-16.6-11.5-33.7-23.3-51.3-35.5c-69.4-49.6-141.1-110.5-209.9-180.7
				c-8.5-8.7-16.9-17.3-25.3-25.9c14,41.8,35.3,107.5,36.9,118c55.3,51,112.1,95.7,167.7,132.7c18.6,11.9,36.7,23.7,54.5,34.7
				c18.2,10.4,35.8,20.5,52.8,30.3c35.1,18.1,67.2,34.6,97.8,48.1c61,27.7,116.6,41.7,156.1,39.2c19.7-0.6,34.6-6.1,43.9-10.2
				C3420.8,2146.1,3424.7,2142.5,3423.9,2140.7z"/>
			<path class="st2" d="M2801.7,1758.5c-1.3-1.4-2.6-2.9-3.9-4.3c-51.6-56.6-110.3-106.3-160.7-164.1
				c-103.3-118.4-131.8-204.5-131.8-204.5s-233.5-195.6-363.8-300.8c-23.4,5.4-59.5,14.8-83.1,26.6
				c147.4,101.2,280.2,218.3,390.1,329c41.8,50.5,92.1,109.8,148.6,175c28.3,32.6,57.8,66.6,89.4,101.8
				c15.8,17.6,31.8,35.5,48.1,53.6c1.8,2,3.6,4,5.4,6c6.4,7.1,12.8,14.2,19.2,21.3c8.7,9,17.5,18,26.3,27.1
				c13.1,13.4,26.4,26.2,39.7,38.9c4.5,4.2,9,8.3,13.4,12.5C2837.2,1866.1,2815.9,1800.4,2801.7,1758.5z"/>
			<path class="st2" d="M2526.1,2290.9c-66-28.6-132.7-56.8-199.3-84.3c-133.4-54.8-266.4-107.2-394.3-152
				c-64.1-22.2-126.4-43.3-187.7-60.7c-3.9-1.2-7.9-2.2-11.8-3.3c0.1,0.2,0.2,0.3,0.3,0.5c7.2,11.9,80.2,111.5,124.9,149.7
				c13.6,4.2,27.3,8.5,41.2,12.8c126.9,40.2,260.9,86.8,395.8,135c67.4,24.2,135.1,48.9,202.1,73.9c4.4,1.7,8.9,3.3,13.4,5
				c23-12.4,49.1-29.8,80.4-48.4C2569.7,2309.8,2548.1,2300.4,2526.1,2290.9z"/>
			<path class="st3" d="M1733,1990.6c-119.8-34.8-244-49.1-367.7-62.3c-94.1-10.1-188.6-15.9-283-22.6
				c-103.4-7.4-206.6-16.6-310.1-22.7c-66-3.9-123.2,1.2-183.6,29c-26.1,12-53.3,17.6-80.7,25.8c-22,6.6-43.8,21.7-66.9,23.1
				c-33.3,1.9-17.1-32.3-2.3-47.9c10.8-11.4,25-19.5,38-28c63.4-41.3,137.9-82,215.3-84.1c62.7-1.7,125.1,5.1,187.6,8.9
				c48,2.2,94.9,6.4,141.9,4c23.3-0.7,46.5-0.5,69.1-2.2c89.2-6.7,194-19.5,249.2-99.5c14.3-17.9,23.1-39.6,29.8-56.6
				c4.8-12.5,9.5-25.4,16.3-37c8.4-14.4,21.2-25.4,33.3-36.6l1.1-1c4.7-3.5,9.5-7.1,15.4-11.2c10-7.4,20.7-14.2,31.1-23
				c10.3-9.4,20.9-19.1,31.8-29.1c9.5-9.8,19.3-19.8,29.4-30.1c8.7-8.8,20.2-18.2,33-32c6.3-6.9,12.8-15.2,18.7-25.4
				c2.9-5,5.3-11.3,7.8-17.1c2-6.3,3.3-13.2,4.6-19.9c1.4-15.3-0.6-31.1-5-43.7c-4.2-12.6-9.7-23.8-15.2-33.2
				c-2.8-5-5.4-9.1-8.2-13.7c-2.5-4.1-5.1-8.2-7.7-12.3c-5-8.1-10.9-17.4-18.1-27c-7.1-9.7-16.5-20-27.7-29.4
				c-24.8-20.9-57.1-28.3-87.3-37.6c-16-4.9-22.2-20-30.8-33.2l-10.3-15.1l-5.8-7.9c-2.3-2.8-3.7-5-7.4-9.2
				c-12-14.1-27.9-27.3-45.7-32.8c-18.3-5.6-37.8-3.6-56.2-0.1c-14.5,2.8-28.7,6.5-42.9,10.3c-14,3.7-29.4,10-42.8,1.3
				c-14.9-9.8-22.9-30.4-33.3-44.4c-9.5-12.7-19-25.3-28.4-37.9c-9.7-13.1-22-26.3-15.8-43.8c5.5-15.6,21-29.3,36.7-34.2
				c3.1-1,6.9-2,9.4-3l7.6-3c10.1-4,20.2-8,30.3-12c10.4-3.8,19.6-8.6,29.1-13.2c9.5-4.6,19-9.3,28.5-14c25.5-13.9,51.9-28.2,79-43
				c7.7-4.2,10.5-5.7,16.8-8.5c5.6-2.6,12.1-5.1,18.4-7.4c13.4-4.9,26.1-7.3,40.4-5.5c7.1,0.6,14.2,1.2,21.4,1.9
				c7.6,0.2,15.2,0.4,22.8,0.6c7.9-0.5,15.9-0.9,23.9-1.4c24.8-1,47.1-2.7,72.5-3.4c13.1,0.1,26.3,0.2,39.5,0.2
				c13.2,0.1,26.3,0.2,41.5-0.4l21.9-0.7c2.3-0.1,4.5-0.3,6.8-0.4c4.8-0.3,9.5-1.4,14.3-2c1.5-0.5,3.9,0.1,3.4,1.6
				c-1.2,3.3-3.4,6-5.2,9.1c-3.8,6.6-5.5,13.8-7.5,21c-1,3.8-1,7.4-0.5,11.2c0.4,3.4,1,6.8,1.7,10.2c1.3,6.4,3.5,12.6,6.3,18.5
				c1.9,3.3,4,6.4,6.2,9.5c2.3,3.3,4.4,5.7,6.5,7.8c2.2,2.2,4.4,4.4,6.6,6.5c4,3.1,8.4,6.6,12.3,9c7.8,5,15.3,8.7,22.3,11.7
				c14.1,6.1,27.1,10.2,39.7,13.8l18,4.9l7.5,2c1.5,0.3,4.4,1.5,7.1,2.5c87.2,29.5,170.8,73.4,249.3,123.8c7,4.7,13.7,9.6,20.9,14.2
				c23.3-11.7,59.4-21.1,82.8-26.5c-20.2-16.3-40.8-32.5-61.8-48.3c-8.3-6.2-17-12-25.6-18c-8.6-6-17.2-11.9-25.9-17.7
				c-8.8-5.8-17.6-11.6-26.6-17.2c-9-5.6-18.1-11.2-27.3-16.5c-9.2-5.4-18.5-10.7-27.8-15.9c-9.3-5.2-18.6-10.3-28-15.2
				c-9.4-4.9-18.8-9.8-28.3-14.5c-9.6-4.7-19.3-9.2-29-13.5c-10-4.4-20-8.6-30.2-12.6c-10.4-4.1-20.8-8-31.2-11.9
				c-2.5-0.9-5-2-7.6-2.8c-5.7-1.9-11.4-4.6-17.4-5.6c-2.9-0.5-6.1-0.6-8.5-2.4c-3.2-2.3,0.6-5.3,2.3-7c4.3-4.1,8.2-8.7,12-13.3
				c4.8-5.9,9.4-12.1,13.4-18.6c1.9-3.2,3.7-6.4,5.3-9.8c6.9-15,8.8-27.1,7.5-39.8c-0.3-3.2-1.1-6.7-2.4-10.4
				c-4-11.6-17.3-17.7-27.5-23.8c-10.9-6.5-20.3-16.2-33.5-16.3c-25.2-0.3-49.8-1.7-76.1-0.4c-9.4,0.3-18.8,0.7-28.2,1l-18.8,0
				c-11.9,0.2-25.6-0.4-39.1-0.9c-13.4-0.5-26.8-0.9-40.1-1.4c-27.3-0.1-56.9,1.2-83.3,1.8l-14.3,0.5l-15.1-0.7l-16.1-1.7
				c-6.7-1-13.5-1.9-20.2-2.9l-6-0.4c-2,0.8-4,0.2-6,0.4c-4-0.2-8,0.2-11.9,0.9c-3.7,0.6-8.5,1.1-11.2,1.8l-7.6,1.9
				c-9.8,2.6-18.3,5.3-26.9,8.3c-8.6,3-16.9,6.1-25.5,9.8c-8,3.3-19.1,8.9-24.8,12c-27,14.5-53.1,28.5-78.4,42.1l-25,12.2
				c-8.3,4-16.6,8.5-24.8,11.4l-24.5,9.8l-6.1,2.5c-2,0.8-3,1-4.6,1.5l-14.7,4.3c-4.1,1.2-16.8,5.4-24.4,9.7
				c-8.6,4.2-16.5,9.7-23.5,16.1c-3.2,3.5-7,6.6-9.3,10.7c-2.6,4-4.2,8.5-7.6,11.9c-1.1,2.2-2,4.3-2.9,6.3l-2.2,4.9l-2.9,5.7
				c-4.2,8.4-9,17.7-13.5,27.7c-2.3,5-4.6,10.1-6.8,15.8l-1.7,4.3l-2.3,6.3c-1.5,4.5-2.9,9-3.9,13.5c-2.3,9-3.9,18.2-3.4,27.3
				c-0.2,4.6,0.6,9.1,1.2,13.6l2.3,6.4c-0.4,2.5,1.4,4.2,2,6.4c2.9,8.4,8.9,16.1,13.7,24l9.1,14c12.1,16.5,24.3,32.5,35.7,46.5
				c11.8,15,21,26.4,32.2,41.9c6,8,12.8,17.2,22.6,26.9c2.2,2.3,5.1,4.8,7.8,7.2c2.8,2.4,5.5,4.7,8.9,7c7.2,5.5,15.3,9,22.9,12.9
				c5.5,1.8,11.1,3.6,16.7,5c5.7,1.2,11.5,1.6,17.3,2.1c5.8,0,11.6-0.3,17.3-0.8c5.7-0.8,10.6-1.8,14.9-2.8
				c17.1-4.3,27.7-8.9,35.7-11.2c11.5-3.4,23.9-9.4,35.8-10.8c13.2-1.5,19.5,13.1,26.1,21.9c6.8,9.4,13.5,18.7,20.2,28
				c28.4,38.8,73,36.8,113.9,53c17.2,6.8,28.5,24.1,38.8,38.6l8.3,11.6c2.4,3.5,5.2,7.1,7.1,10.2c4.5,6.5,7.4,12,9.5,16.6
				c2.2,4.7,2.1,7.2,2.8,9.7c0.4,3.8-2.2,11.1-9.6,20.8c-7.1,9.5-17.8,20.1-28.4,32.9c-9.1,11.4-17.9,22.5-26.5,33.2
				c-8.2,9.4-16.2,18.5-23.9,27.3c-13.5,13.4-26.9,25.3-40.4,38.4c-0.4,0.3-0.7,0.6-1.1,0.8c-15.1,12-30,24.4-42,39.6
				c-12.5,15.8-20.7,34.3-29,52.6c-7.6,16.5-13.8,29.9-24.4,41.6c-17.2,19-37.5,35.4-61.6,44.5c-23.6,9-49.2,13.4-74.2,16.5
				c-14,1.7-28,2.5-42.1,3.6c-29.8,2.3-59.5,1.9-89.4,2.5c-43.7,1.8-89.4-2.5-135.7-4.7c-43.8-2.7-86.3-6.8-129.5-7
				c-21.4-0.4-42.6-0.9-63.6-1.3c-11.8,0.8-23.9,2.1-35.7,3.3c-11.4,1.9-22.2,5-33.1,7.5c-84.9,25.2-150.3,68-208.8,111.5
				c-4.2,3.2-8.5,7.4-11.6,10.9c-3,3.4-5.7,6.7-8.1,9.9c-4.9,6.6-8.6,12-14.7,21.8c-10.6,17.7-18.9,36-23.2,53.1
				c-4.2,17.2-4.9,32.8,0,47.3c1.6,4.5,4.2,8.9,7.4,12.6c0.2,0.3,0.3,0.6,0.5,0.8c6.4,8,15.2,12,24.4,15.6c18,5.3,40.4,6.1,66.3,1.2
				c19.8-4,39.5-8.6,59.4-12.2c18.7-3.4,39.1-3.4,57.1-9.5c54.4-18.6,95.9-44.2,154.1-45.9c102-3.1,203.8,6.9,305.3,15.9
				c89,7.8,271.1,80.1,271.1,80.1c94.7-4.6,181.7-12.1,274.6,5.9c71.2,13.8,140.6,39.7,209.9,61.6c23.8,7.5,47.6,14.9,71.5,22.3
				c-44.7-38.2-117.7-137.8-124.9-149.7C1733.2,1990.9,1733.1,1990.7,1733,1990.6"/>
		</g>
	</g>
</g>
</svg>
