
<svg width="214px" height="214px" viewBox="0 0 214 214" version="1.1" xmlns="http://www.w3.org/2000/svg" xmlns:xlink="http://www.w3.org/1999/xlink">
    <!-- Generator: Sketch 46.2 (44496) - http://www.bohemiancoding.com/sketch -->
    <desc>Created with Sketch.</desc>
    <defs>
        <polygon id="path-1" points="161.499435 213.180077 6.49884504e-05 213.180077 6.49884503e-05 0.168258914 161.499435 0.168258914 161.499435 213.180077"></polygon>
    </defs>
    <g id="Page-1" stroke="none" stroke-width="1" fill="none" fill-rule="evenodd">
        <g id="website" transform="translate(-492.000000, -989.000000)">
            <g id="Group-22" transform="translate(492.000000, 989.000000)">
                <g id="Group-14">
                    <g id="Group-3" transform="translate(0.000000, 0.790406)" fill="#FFBF00">
                        <path d="M1.64055755,75.8717322 C2.37625927,76.4231307 3.23594187,76.6891958 4.08866845,76.6891958 C5.33420574,76.6891958 6.56460344,76.1213989 7.36822868,75.0452494 L58.3890203,6.72431456 C59.7429897,4.91146398 59.3739113,2.3422341 57.564527,0.985670881 C55.7539151,-0.370892337 53.1904161,-0.000696934866 51.8368558,1.81215364 L0.815655067,70.1330885 C-0.537905163,71.9459391 -0.168826769,74.515169 1.64055755,75.8717322" id="Fill-1"></path>
                    </g>
                    <path d="M3.62412887,33.769487 C4.35983059,34.3208854 5.21951319,34.5869506 6.07223977,34.5869506 C7.31777706,34.5869506 8.54817476,34.0191536 9.3518,32.9430042 L28.7525572,6.96373218 C30.1065266,5.15088161 29.737039,2.58165172 27.9276547,1.22508851 C26.1178612,-0.131064751 23.553953,0.23872069 22.1999836,2.05157126 L2.79922639,28.0308433 C1.44566616,29.8436939 1.81474455,32.4129238 3.62412887,33.769487" id="Fill-4" fill="#FFBF00"></path>
                    <path d="M207.828248,180.518757 C206.018455,179.162194 203.454546,179.532389 202.100577,181.34524 L182.69982,207.324512 C181.34585,209.137362 181.715338,211.706592 183.524722,213.063156 C184.260015,213.614554 185.120107,213.880209 185.972833,213.880209 C187.218371,213.880209 188.448768,213.312822 189.252393,212.236673 L208.653151,186.257401 C210.006711,184.44455 209.637633,181.87532 207.828248,180.518757" id="Fill-6" fill="#FFBF00"></path>
                    <path d="M4.0360891,107.878302 C4.77097247,108.42847 5.63024589,108.693716 6.48174493,108.693716 C7.72810057,108.693716 8.95972581,108.124689 9.76294187,107.04731 L83.9648845,7.51189195 C85.3172172,5.69781149 84.9456837,3.12899157 83.1350719,1.7740682 C81.3248692,0.418734866 78.7601426,0.7918 77.4082191,2.60506054 L3.20668566,102.140478 C1.85435296,103.954559 2.22547725,106.523379 4.0360891,107.878302" id="Fill-8" fill="#FFBF00"></path>
                    <g id="Group-12" transform="translate(0.000000, 0.790406)" fill="#FFBF00">
                        <path d="M1.64055755,143.872528 C2.37625927,144.423926 3.23594187,144.689992 4.08866845,144.689992 C5.33420574,144.689992 6.56460344,144.122195 7.36822868,143.046045 L57.375896,76.0820835 C57.8055327,75.8184782 58.1954792,75.4741103 58.5154562,75.0452904 L109.536248,6.72394559 C110.890217,4.91150498 110.521139,2.34186513 108.711754,0.985711877 C106.901961,-0.370851341 104.337644,-0.000655938697 102.984083,1.81219464 L52.9780528,68.7741065 C52.5475977,69.0377119 52.1572421,69.3833096 51.8368558,69.8129494 L0.815655067,138.133884 C-0.537905163,139.946735 -0.168826769,142.515965 1.64055755,143.872528" id="Fill-10"></path>
                    </g>
                    <path d="M77.4139885,70.59819 L2.80286807,170.186083 C1.44644359,171.996884 1.81183939,174.566933 3.61917782,175.925956 C4.35528872,176.479815 5.21783556,176.74711 6.07219885,176.74711 C7.31609943,176.74711 8.54445124,176.181362 9.34807648,175.108493 L82.9444359,76.8751134 C83.3761185,76.6110981 83.7677017,76.2659103 84.0889063,75.8354506 L135.110107,7.51451571 C136.463667,5.70166513 136.094589,3.13243525 134.285205,1.77587203 C132.475002,0.419718774 129.911503,0.789504215 128.557533,2.60276475 L78.5515029,69.5646766 C78.1226845,69.8274621 77.7339656,70.17101 77.4139885,70.59819" id="Fill-13" fill="#FFBF00"></path>
                    <g id="Group-17" transform="translate(51.147228, 0.790406)">
                        <mask id="mask-2" fill="white">
                            <use xlink:href="#path-1"></use>
                        </mask>
                        <g id="Clip-16"></g>
                        <path d="M58.8807293,143.046004 L109.90193,74.7250693 C109.902748,74.7242494 109.903158,74.7234295 109.903567,74.7226096 L160.683762,6.72431456 C162.037322,4.91146398 161.668244,2.3422341 159.858859,0.985670881 C158.048657,-0.370892337 155.485158,-0.000696934866 154.131188,1.81215364 L103.110397,70.1330885 C103.109578,70.1339084 103.109169,70.1347284 103.10876,70.1355483 L52.97793,137.264315 C52.547475,137.52833 52.1575285,137.873518 51.8367331,138.303157 L0.815941491,206.624092 C-0.538027916,208.436943 -0.168540344,211.006173 1.6404348,212.362736 C2.37613652,212.914134 3.2362283,213.1802 4.08895488,213.1802 C5.33449216,213.1802 6.56488987,212.612403 7.36810593,211.536253 L57.741169,144.082387 C58.1708057,143.818782 58.5607522,143.474824 58.8807293,143.046004" id="Fill-15" fill="#FFBF00" mask="url(#mask-2)"></path>
                    </g>
                    <path d="M212.295611,33.6660126 C210.48459,32.3110893 207.9215,32.6825146 206.568349,34.4961851 L128.682169,138.926545 C128.661301,138.954423 128.644934,138.98435 128.624475,139.012637 C128.602789,139.040105 128.578647,139.065112 128.557779,139.0934 L77.5365782,207.414744 C76.183018,209.227595 76.5520964,211.796825 78.3614807,213.152978 C79.0971824,213.704377 79.956865,213.970442 80.8095916,213.970442 C82.0551289,213.970442 83.2855266,213.402645 84.0891518,212.326495 L135.109943,144.005561 C135.132857,143.974403 135.15168,143.942016 135.173775,143.910859 C135.194234,143.884212 135.217557,143.861254 135.238016,143.834607 L213.123787,39.4042464 C214.476528,37.5901659 214.105813,35.021346 212.295611,33.6660126" id="Fill-18" fill="#FFBF00"></path>
                    <path d="M58.4526474,143.910777 C58.4726971,143.88495 58.4956111,143.862812 58.5156608,143.836574 L109.486124,75.5828732 C109.529906,75.5299881 109.57737,75.4812027 109.618697,75.4258579 L160.640307,7.10451303 C161.993867,5.29166245 161.624789,2.72243257 159.815405,1.36627931 C158.005202,0.00971609195 155.441294,0.379501533 154.087733,2.19276207 L103.139776,70.4157161 C103.087401,70.4776203 103.03298,70.5374747 102.983879,70.6034785 L51.9630872,138.924413 C51.9418099,138.952701 51.9250337,138.982628 51.9045748,139.011325 C51.8824792,139.039613 51.8583377,139.06462 51.8366512,139.093318 L0.815859656,207.414662 C-0.538109751,209.227513 -0.16862218,211.796743 1.64076214,213.153306 C2.37605468,213.704295 3.23614646,213.97036 4.08887304,213.97036 C5.33441033,213.97036 6.56480803,213.402973 7.36843327,212.326823 L58.3892249,144.005479 C58.4121388,143.974731 58.4305518,143.941934 58.4526474,143.910777" id="Fill-20" fill="#FFBF00"></path>
                    <path d="M84.0262612,143.910777 C84.0463109,143.88495 84.0692249,143.862812 84.0892746,143.836574 L134.096533,76.8722027 C134.526169,76.6085973 134.916116,76.2642295 135.236502,75.8358195 L186.257294,7.51447471 C187.611263,5.70162414 187.241776,3.13239425 185.432391,1.776241 C183.622598,0.419677778 181.058689,0.789463218 179.70472,2.60272375 L129.698689,69.5646356 C129.268234,69.828241 128.878288,70.1738387 128.557493,70.6034785 L77.536701,138.924413 C77.5154237,138.952701 77.4986474,138.982628 77.4781885,139.011325 C77.4560929,139.039613 77.4319514,139.06462 77.410265,139.093318 L26.3894734,207.414662 C25.035504,209.227513 25.4049916,211.796743 27.2143759,213.153306 C27.9496685,213.704295 28.8097602,213.97036 29.6624868,213.97036 C30.9080241,213.97036 32.1384218,213.402973 32.942047,212.326823 L83.9628386,144.005479 C83.9857526,143.974731 84.0041656,143.941934 84.0262612,143.910777" id="Fill-22" fill="#FFBF00"></path>
                    <path d="M161.721887,142.615339 L211.83103,75.5152705 C213.18459,73.7024199 212.815512,71.13319 211.006128,69.7770368 C209.195925,68.4204736 206.632426,68.790669 205.278457,70.6035195 L154.257665,138.924454 C153.93687,139.353684 153.715914,139.82637 153.584977,140.314634 L103.475424,207.414703 C102.121864,209.227554 102.490942,211.796784 104.300327,213.153347 C105.036028,213.704336 105.895711,213.970401 106.748437,213.970401 C107.993975,213.970401 109.224372,213.402604 110.027998,212.326454 L161.049198,144.00552 C161.369994,143.57588 161.590541,143.103604 161.721887,142.615339" id="Fill-24" fill="#FFBF00"></path>
                    <path d="M211.054902,102.940108 C209.23938,101.592154 206.676699,101.973829 205.331322,103.792829 L128.672676,207.429503 C127.327299,209.248503 127.708244,211.816093 129.523766,213.164457 C130.256194,213.708066 131.110148,213.970442 131.956737,213.970442 C133.208821,213.970442 134.444948,213.396905 135.247345,212.311737 L211.905992,108.674652 C213.251368,106.855652 212.870424,104.288472 211.054902,102.940108" id="Fill-26" fill="#FFBF00"></path>
                    <path d="M211.006128,138.266876 C209.195925,136.910313 206.632426,137.280508 205.278457,139.093359 L154.257665,207.414703 C152.903696,209.227554 153.272774,211.796784 155.082158,213.153347 C155.81786,213.704336 156.677952,213.970401 157.530678,213.970401 C158.776216,213.970401 160.006204,213.402604 160.809829,212.326454 L211.83103,144.00552 C213.18459,142.192669 212.815512,139.623439 211.006128,138.266876" id="Fill-28" fill="#FFBF00"></path>
                </g>
            </g>
        </g>
    </g>
</svg>
