
<svg width="213px" height="214px" viewBox="0 0 213 214" version="1.1" xmlns="http://www.w3.org/2000/svg" xmlns:xlink="http://www.w3.org/1999/xlink">
    <!-- Generator: Sketch 46.2 (44496) - http://www.bohemiancoding.com/sketch -->
    <desc>Created with Sketch.</desc>
    <defs>
        <polygon id="path-1" points="0 29.927572 0 0.020908046 213 0.020908046 213 29.927572"></polygon>
        <polygon id="path-3" points="4.52056498e-15 29.9989874 4.52056498e-15 0.0922823755 213 0.0922823755 213 29.9989874"></polygon>
        <polygon id="path-5" points="4.52056498e-15 30.4259215 4.52056498e-15 0.341703065 213 0.341703065 213 30.4259215"></polygon>
        <polygon id="path-7" points="4.52056498e-15 30.248408 4.52056498e-15 0.341703065 213 0.341703065 213 30.248408"></polygon>
        <polygon id="path-9" points="4.52056498e-15 30.0877031 4.52056498e-15 0.181408046 213 0.181408046 213 30.0877031"></polygon>
        <polygon id="path-11" points="4.52056498e-15 29.9271621 4.52056498e-15 0.0204570881 213 0.0204570881 213 29.9271621"></polygon>
        <polygon id="path-13" points="4.52056498e-15 30.1767467 4.52056498e-15 0.270041762 213 0.270041762 213 30.1767467 0 30.1767467"></polygon>
        <polygon id="path-15" points="4.52056498e-15 30.0162057 4.52056498e-15 0.109500766 213 0.109500766 213 30.0162057 0 30.0162057"></polygon>
        <polygon id="path-17" points="4.52056498e-15 30.2656264 4.52056498e-15 0.358921456 213 0.358921456 213 30.2656264 0 30.2656264"></polygon>
    </defs>
    <g id="Page-1" stroke="none" stroke-width="1" fill="none" fill-rule="evenodd">
        <g id="website" transform="translate(-1019.000000, -989.000000)">
            <g id="Group-22" transform="translate(492.000000, 989.000000)">
                <g id="Page-1" transform="translate(527.000000, 0.000000)">
                    <g id="Group-3" transform="translate(0.000000, 0.389054)">
                        <mask id="mask-2" fill="white">
                            <use xlink:href="#path-1"></use>
                        </mask>
                        <g id="Clip-2"></g>
                        <path d="M1.38183237,18.756936 C9.79964162,26.2088096 19.6161098,29.927572 29.4313468,29.927572 C39.4792832,29.927572 49.5259884,26.0271966 58.0570694,18.243254 L58.2163064,18.0977176 C71.9849711,5.53485172 89.7349711,5.45039962 103.570532,17.8324724 L103.543855,17.8619897 C120.516139,33.3872387 143.332584,33.4036372 160.31841,17.9050356 L160.478058,17.7594992 C174.294329,5.15235747 192.231064,4.98345326 206.17374,17.3273996 C207.870353,18.8294992 210.464931,18.6728939 211.967422,16.9785222 C213.470734,15.2841506 213.31437,12.6927828 211.618168,11.1910931 C203.200769,3.73921954 193.384301,0.0208670498 183.568653,0.0208670498 C173.520717,0.0208670498 163.474422,3.92083257 154.942931,11.7047751 L154.783694,11.8503115 C141.015029,24.4131774 123.265029,24.4980395 109.429468,12.1155567 L109.456145,12.0864494 C92.4838613,-3.43920958 69.6674162,-3.45560805 52.6815896,12.0434034 L52.5219422,12.1889398 C38.7056705,24.7952617 20.7689364,24.9649858 6.82626012,12.6206295 C5.13046821,11.1193498 2.53589017,11.2751352 1.03257803,12.9695069 C-0.470734104,14.6642885 -0.314369942,17.2552464 1.38183237,18.756936" id="Fill-1" fill="#256F9B" mask="url(#mask-2)"></path>
                    </g>
                    <g id="Group-6" transform="translate(0.000000, 115.588287)">
                        <mask id="mask-4" fill="white">
                            <use xlink:href="#path-3"></use>
                        </mask>
                        <g id="Clip-5"></g>
                        <path d="M211.618209,11.2629184 C203.20081,3.81104483 193.384342,0.0922823755 183.568694,0.0922823755 C173.520758,0.0922823755 163.474053,3.99265785 154.942972,11.7766004 L154.783735,11.9221368 C141.014249,24.4845927 123.26507,24.5694548 109.429509,12.186972 L109.456186,12.1578648 C92.4843127,-3.36738429 69.6678676,-3.38460268 52.6816306,12.1148188 L52.5219832,12.2603552 C38.7053012,24.867087 20.7685671,25.0359912 6.82630116,12.6920448 C5.12968844,11.1903552 2.5351104,11.3469605 1.03261908,13.0409222 C-0.470693064,14.7357038 -0.314328902,17.3266617 1.38187341,18.8283513 C9.79927225,26.2802249 19.6157405,29.9989874 29.4313879,29.9989874 C39.4793243,29.9989874 49.5260295,26.0986119 58.0571104,18.3146693 L58.2163474,18.169133 C71.9858329,5.60626705 89.7350121,5.52181494 103.570573,17.9042977 L103.543897,17.933405 C120.515359,33.458654 143.331804,33.4758724 160.318451,17.976451 L160.478099,17.8309146 C174.294371,5.22418276 192.231105,5.05527854 206.173781,17.3992249 C207.870394,18.9009146 210.464561,18.7447192 211.967463,17.0503475 C213.470775,15.3555659 213.314411,12.764608 211.618209,11.2629184" id="Fill-4" fill="#256F9B" mask="url(#mask-4)"></path>
                    </g>
                    <g id="Group-9" transform="translate(0.000000, 91.400548)">
                        <mask id="mask-6" fill="white">
                            <use xlink:href="#path-5"></use>
                        </mask>
                        <g id="Clip-8"></g>
                        <path d="M211.618209,11.5123391 C203.20081,4.06046552 193.384342,0.341703065 183.568694,0.341703065 C173.520758,0.341703065 163.474053,4.24207854 154.942972,12.0260211 L154.783735,12.1715575 C140.897694,24.8410134 122.961371,24.8270747 109.076151,12.1260517 L109.011717,12.1953352 C92.0874514,-2.93020115 69.5209428,-2.82361111 52.6816306,12.5417529 L52.5219832,12.6872893 C38.7053012,25.2940211 20.7685671,25.4633352 6.82630116,13.1193889 C5.12968844,11.6172893 2.5351104,11.7738946 1.03261908,13.4682663 C-0.470693064,15.1626379 -0.314328902,17.7540057 1.38187341,19.2556954 C9.79927225,26.707569 19.6157405,30.4259215 29.4313879,30.4259215 C39.4793243,30.4259215 49.5260295,26.5259559 58.0571104,18.7420134 L58.2163474,18.596477 C72.1023879,5.92702107 90.0387116,5.94095977 103.923931,18.6419828 L103.988365,18.5722893 C120.91222,33.6978257 143.478729,33.5912356 160.318451,18.2258716 L160.478099,18.0803352 C174.294371,5.47401341 192.231105,5.30469923 206.173781,17.6486456 C207.870394,19.1503352 210.464561,18.9941398 211.967463,17.2997682 C213.470775,15.6049866 213.314411,13.0140287 211.618209,11.5123391" id="Fill-7" fill="#256F9B" mask="url(#mask-6)"></path>
                    </g>
                    <g id="Group-12" transform="translate(0.000000, 138.136180)">
                        <mask id="mask-8" fill="white">
                            <use xlink:href="#path-7"></use>
                        </mask>
                        <g id="Clip-11"></g>
                        <path d="M211.618209,11.5123391 C203.201631,4.06128544 193.383521,0.341703065 183.569515,0.341703065 C173.519937,0.341703065 163.474053,4.24166858 154.94092,12.0276609 L154.783735,12.1715575 C141.140654,24.6192241 123.590931,24.8143659 109.812006,12.7721513 C109.715151,12.6606418 109.61296,12.5524119 109.502151,12.4495115 C109.493943,12.4417222 109.464804,12.4150747 109.456186,12.4072854 C92.4839023,-3.11837356 69.6674572,-3.13477203 52.6816306,12.3642395 L52.5219832,12.5097759 C38.7053012,25.1165077 20.7685671,25.2854119 6.82630116,12.9414655 C5.12968844,11.4397759 2.5351104,11.5963812 1.03261908,13.2903429 C-0.470693064,14.9851245 -0.314328902,17.5760824 1.38187341,19.077772 C9.79927225,26.5296456 19.6157405,30.248408 29.4313879,30.248408 C39.4793243,30.248408 49.5260295,26.3480326 58.0571104,18.56409 L58.2163474,18.4185536 C71.9895266,5.85117816 89.7473243,5.77000575 103.570573,18.1533084 L103.543897,18.1828257 C120.51618,33.7084847 143.332214,33.7248831 160.320503,18.2242318 L160.478099,18.0803352 C174.294371,5.47401341 192.231105,5.30387931 206.173781,17.6486456 C207.870394,19.1503352 210.464561,18.9941398 211.967463,17.2997682 C213.470775,15.6049866 213.314411,13.0140287 211.618209,11.5123391" id="Fill-10" fill="#256F9B" mask="url(#mask-8)"></path>
                    </g>
                    <g id="Group-15" transform="translate(0.000000, 161.094034)">
                        <mask id="mask-10" fill="white">
                            <use xlink:href="#path-9"></use>
                        </mask>
                        <g id="Clip-14"></g>
                        <path d="M211.618209,11.3516341 C203.201631,3.90058046 193.383931,0.181408046 183.569515,0.181408046 C173.519937,0.181408046 163.474053,4.08137356 154.94092,11.8669559 L154.783735,12.0108525 C141.014249,24.5737184 123.26507,24.6581705 109.429509,12.2760977 L109.456186,12.2465805 C92.4839023,-3.27866858 69.6674572,-3.29506705 52.6816306,12.2035345 L52.5219832,12.3490709 C38.7053012,24.9562126 20.7685671,25.1251169 6.82630116,12.7811705 C5.12968844,11.2790709 2.5351104,11.4356762 1.03261908,13.1300479 C-0.470693064,14.8244195 -0.314328902,17.4157874 1.38187341,18.917477 C9.79927225,26.3693506 19.6157405,30.0877031 29.4313879,30.0877031 C39.4793243,30.0877031 49.5260295,26.1877375 58.0571104,18.403795 L58.2163474,18.2582586 C71.9850121,5.69539272 89.7350121,5.61053065 103.570573,17.9930134 L103.543897,18.0221207 C120.51618,33.5477797 143.332214,33.5645881 160.320503,18.0639368 L160.478099,17.9196303 C174.294371,5.31330843 192.231105,5.14358429 206.173781,17.4879406 C207.869983,18.9892203 210.46374,18.8334349 211.967463,17.1390632 C213.470775,15.4442816 213.314411,12.8533238 211.618209,11.3516341" id="Fill-13" fill="#256F9B" mask="url(#mask-10)"></path>
                    </g>
                    <g id="Group-18" transform="translate(0.000000, 184.051889)">
                        <mask id="mask-12" fill="white">
                            <use xlink:href="#path-11"></use>
                        </mask>
                        <g id="Clip-17"></g>
                        <path d="M211.618264,11.170636 C203.200455,3.71876245 193.383986,0 183.568749,0 C173.520813,0 163.474108,3.90037548 154.943027,11.684318 L154.78379,11.8298544 C141.015125,24.3927203 123.265125,24.4771724 109.429564,12.0950996 L109.456241,12.0655824 C92.4839575,-3.45966667 69.6675124,-3.47606513 52.6816858,12.0225364 L52.5220384,12.1680728 C38.7053563,24.7752146 20.7686222,24.9441188 6.82635634,12.6001724 C5.12974363,11.0980728 2.53516559,11.2546782 1.03267426,12.9490498 C-0.470637876,14.6434215 -0.314273714,17.2347893 1.3819286,18.7364789 C9.79932744,26.1883525 19.6157956,29.906705 29.431443,29.906705 C39.4793795,29.906705 49.5260847,26.0067395 58.0571656,18.2227969 L58.2164026,18.0772605 C71.9850673,5.51439464 89.7350673,5.42953257 103.570628,17.8120153 L103.543952,17.8411226 C120.516235,33.3667816 143.33268,33.3831801 160.318507,17.8841686 L160.478154,17.7386322 C174.294426,5.13231034 192.23116,4.96258621 206.173836,17.3069425 C207.870038,18.8082222 210.463796,18.6524368 211.967518,16.9580651 C213.47083,15.2632835 213.314466,12.6723257 211.618264,11.170636" id="Fill-16" fill="#256F9B" mask="url(#mask-12)"></path>
                    </g>
                    <g id="Group-21" transform="translate(0.000000, 22.936946)">
                        <mask id="mask-14" fill="white">
                            <use xlink:href="#path-13"></use>
                        </mask>
                        <g id="Clip-20"></g>
                        <path d="M211.618209,11.4406778 C203.20081,3.98880421 193.384342,0.270041762 183.568694,0.270041762 C173.520758,0.270041762 163.474053,4.17041724 154.942972,11.9543598 L154.783735,12.0998962 C141.01507,24.6627621 123.26507,24.7472142 109.429509,12.3651414 L109.456186,12.3356241 C92.4839023,-3.19003487 69.6678676,-3.20643333 52.6795786,12.294218 L52.5219832,12.4381146 C38.7057116,25.0448464 20.7689775,25.2145705 6.82630116,12.8702142 C5.13050925,11.3685245 2.53552081,11.5247199 1.03261908,13.2190916 C-0.470693064,14.9134632 -0.314328902,17.504831 1.38187341,19.0065207 C9.79845145,26.4575743 19.6161509,30.1767467 29.4305671,30.1767467 C39.4801451,30.1767467 49.5260295,26.2767812 58.0591624,18.4907889 L58.2163474,18.3468923 C71.9858329,5.78402644 89.7350121,5.69957433 103.570573,18.0820571 L103.543897,18.1111644 C120.51618,33.6368234 143.332625,33.6528119 160.318451,18.1542103 L160.478099,18.0086739 C174.294371,5.40194215 192.231105,5.23303793 206.173781,17.5769843 C207.870394,19.0786739 210.464561,18.9224785 211.967463,17.2281069 C213.470775,15.5333253 213.314411,12.9423674 211.618209,11.4406778" id="Fill-19" fill="#256F9B" mask="url(#mask-14)"></path>
                    </g>
                    <g id="Group-24" transform="translate(0.000000, 45.894801)">
                        <mask id="mask-16" fill="white">
                            <use xlink:href="#path-15"></use>
                        </mask>
                        <g id="Clip-23"></g>
                        <path d="M211.618209,11.2801368 C203.20081,3.82826322 193.384342,0.109500766 183.568694,0.109500766 C173.520758,0.109500766 163.474053,4.00987625 154.942972,11.7938188 L154.783735,11.9393552 C141.010145,24.5067307 123.252347,24.5879031 109.429509,12.2046004 L109.456186,12.1750831 C92.4839023,-3.35057586 69.6678676,-3.36697433 52.6795786,12.133677 L52.5219832,12.2775736 C38.7057116,24.8843054 20.7689775,25.0540295 6.82630116,12.7092632 C5.12968844,11.2075736 2.5351104,11.363769 1.03261908,13.0581406 C-0.470693064,14.7529222 -0.314328902,17.3438801 1.38187341,18.8455697 C9.79845145,26.2966234 19.6165613,30.0162057 29.4305671,30.0162057 C39.4801451,30.0162057 49.5260295,26.1162402 58.0591624,18.3302479 L58.2163474,18.1863513 C71.8594283,5.73868467 89.4091509,5.54354291 103.188076,17.5857575 C103.284931,17.697267 103.387122,17.8054969 103.497931,17.9083973 C103.506139,17.9161866 103.535278,17.9428341 103.543897,17.9506234 C120.51618,33.4762824 143.332625,33.4926808 160.318451,17.9936693 L160.478099,17.848133 C174.294371,5.24181111 192.231105,5.07249693 206.173781,17.4164433 C207.870394,18.918133 210.464561,18.7619375 211.967463,17.0675659 C213.470775,15.3727843 213.314411,12.7818264 211.618209,11.2801368" id="Fill-22" fill="#256F9B" mask="url(#mask-16)"></path>
                    </g>
                    <g id="Group-27" transform="translate(0.000000, 68.442693)">
                        <mask id="mask-18" fill="white">
                            <use xlink:href="#path-17"></use>
                        </mask>
                        <g id="Clip-26"></g>
                        <path d="M211.618209,11.5295575 C203.20081,4.07768391 193.384342,0.358921456 183.568694,0.358921456 C173.520758,0.358921456 163.474053,4.25929693 154.942972,12.0432395 L154.783735,12.1887759 C141.014249,24.7516418 123.26507,24.8360939 109.429509,12.4536111 L109.456186,12.4245038 C92.4843127,-3.10074521 69.6678676,-3.1179636 52.6816306,12.3814579 L52.5219832,12.5269943 C38.7053012,25.1337261 20.7685671,25.3026303 6.82630116,12.9586839 C5.12968844,11.4569943 2.5351104,11.6135996 1.03261908,13.3075613 C-0.470693064,15.0023429 -0.314328902,17.5933008 1.38187341,19.0949904 C9.79927225,26.546864 19.6157405,30.2656264 29.4313879,30.2656264 C39.4793243,30.2656264 49.5260295,26.365251 58.0571104,18.5813084 L58.2163474,18.435772 C71.9858329,5.87331609 89.7350121,5.78845402 103.570573,18.1709368 L103.543897,18.2000441 C120.515359,33.7252931 143.331804,33.7425115 160.318451,18.24309 L160.478099,18.0975536 C174.294371,5.49082184 192.231105,5.32191762 206.173781,17.665864 C207.870394,19.1675536 210.464561,19.0113582 211.967463,17.3169866 C213.470775,15.622205 213.314411,13.0312471 211.618209,11.5295575" id="Fill-25" fill="#256F9B" mask="url(#mask-18)"></path>
                    </g>
                </g>
            </g>
        </g>
    </g>
</svg>
