
<svg width="210px" height="214px" viewBox="0 0 210 214" version="1.1" xmlns="http://www.w3.org/2000/svg" xmlns:xlink="http://www.w3.org/1999/xlink">
    <!-- Generator: Sketch 46.2 (44496) - http://www.bohemiancoding.com/sketch -->
    <desc>Created with Sketch.</desc>
    <defs>
        <polygon id="path-1" points="0.223535156 0.0295738964 8.42666016 0.0295738964 8.42666016 213.368844 0.223535156 213.368844 0.223535156 0.0295738964"></polygon>
        <polygon id="path-3" points="0.144251953 0.0295738964 8.34737695 0.0295738964 8.34737695 213.368844 0.144251953 213.368844 0.144251953 0.0295738964"></polygon>
        <polygon id="path-5" points="0.0649277344 0.0295738964 8.26805273 0.0295738964 8.26805273 213.368844 0.0649277344 213.368844 0.0649277344 0.0295738964"></polygon>
        <polygon id="path-7" points="0.104179688 0.0295738964 8.30730469 0.0295738964 8.30730469 213.368844 0.104179688 213.368844"></polygon>
        <polygon id="path-9" points="0.252779297 0.0295738964 8.4559043 0.0295738964 8.4559043 213.368844 0.252779297 213.368844 0.252779297 0.0295738964"></polygon>
        <polygon id="path-11" points="0.105410156 0.0295738964 8.30853516 0.0295738964 8.30853516 213.368844 0.105410156 213.368844 0.105410156 0.0295738964"></polygon>
        <polygon id="path-13" points="0.254009766 0.0295738964 8.45713477 0.0295738964 8.45713477 213.368844 0.254009766 213.368844"></polygon>
        <polygon id="path-15" points="0.383373047 0.0295738964 8.58649805 0.0295738964 8.58649805 213.368844 0.383373047 213.368844"></polygon>
        <polygon id="path-17" points="0.121816406 0.0295738964 8.32494141 0.0295738964 8.32494141 213.368844 0.121816406 213.368844"></polygon>
        <polygon id="path-19" points="0.251179688 0.0295738964 8.45430469 0.0295738964 8.45430469 213.368844 0.251179688 213.368844"></polygon>
    </defs>
    <g id="Page-1" stroke="none" stroke-width="1" fill="none" fill-rule="evenodd">
        <g id="website" transform="translate(-748.000000, -989.000000)">
            <g id="Group-22" transform="translate(492.000000, 989.000000)">
                <g id="Group-19" transform="translate(256.000000, 0.000000)">
                    <g id="Group-32" transform="translate(0.000000, 0.381175)">
                        <mask id="mask-2" fill="white">
                            <use xlink:href="#path-1"></use>
                        </mask>
                        <g id="Clip-31"></g>
                        <path d="M4.32509766,213.368844 C2.06021484,213.368844 0.223535156,211.529922 0.223535156,209.261358 L0.223535156,4.13681305 C0.223535156,1.86824875 2.06021484,0.0293274472 4.32509766,0.0293274472 C6.58998047,0.0293274472 8.42666016,1.86824875 8.42666016,4.13681305 L8.42666016,209.261358 C8.42666016,211.529922 6.58998047,213.368844 4.32509766,213.368844" id="Fill-30" fill="#E73F67" mask="url(#mask-2)"></path>
                    </g>
                    <g id="Group-35" transform="translate(22.558594, 0.381175)">
                        <mask id="mask-4" fill="white">
                            <use xlink:href="#path-3"></use>
                        </mask>
                        <g id="Clip-34"></g>
                        <path d="M4.24581445,213.368844 C1.98093164,213.368844 0.144251953,211.529922 0.144251953,209.261358 L0.144251953,4.13681305 C0.144251953,1.86824875 1.98093164,0.0293274472 4.24581445,0.0293274472 C6.51069727,0.0293274472 8.34737695,1.86824875 8.34737695,4.13681305 L8.34737695,209.261358 C8.34737695,211.529922 6.51069727,213.368844 4.24581445,213.368844" id="Fill-33" fill="#E73F67" mask="url(#mask-4)"></path>
                    </g>
                    <g id="Group-38" transform="translate(45.117188, 0.381175)">
                        <mask id="mask-6" fill="white">
                            <use xlink:href="#path-5"></use>
                        </mask>
                        <g id="Clip-37"></g>
                        <path d="M4.16649023,213.368844 C1.90160742,213.368844 0.0649277344,211.529922 0.0649277344,209.261358 L0.0649277344,4.13681305 C0.0649277344,1.86824875 1.90160742,0.0293274472 4.16649023,0.0293274472 C6.43137305,0.0293274472 8.26805273,1.86824875 8.26805273,4.13681305 L8.26805273,209.261358 C8.26805273,211.529922 6.43137305,213.368844 4.16649023,213.368844" id="Fill-36" fill="#E73F67" mask="url(#mask-6)"></path>
                    </g>
                    <g id="Group-41" transform="translate(67.675781, 0.381175)">
                        <mask id="mask-8" fill="white">
                            <use xlink:href="#path-7"></use>
                        </mask>
                        <g id="Clip-40"></g>
                        <path d="M4.20574219,213.368844 C1.94085937,213.368844 0.104179688,211.529922 0.104179688,209.261358 L0.104179688,4.13681305 C0.104179688,1.86824875 1.94085937,0.0293274472 4.20574219,0.0293274472 C6.470625,0.0293274472 8.30730469,1.86824875 8.30730469,4.13681305 L8.30730469,209.261358 C8.30730469,211.529922 6.470625,213.368844 4.20574219,213.368844" id="Fill-39" fill="#E73F67" mask="url(#mask-8)"></path>
                    </g>
                    <g id="Group-44" transform="translate(156.679688, 0.381175)">
                        <mask id="mask-10" fill="white">
                            <use xlink:href="#path-9"></use>
                        </mask>
                        <g id="Clip-43"></g>
                        <path d="M4.3543418,213.368844 C2.08945898,213.368844 0.252779297,211.529922 0.252779297,209.261358 L0.252779297,4.13681305 C0.252779297,1.86824875 2.08945898,0.0293274472 4.3543418,0.0293274472 C6.61922461,0.0293274472 8.4559043,1.86824875 8.4559043,4.13681305 L8.4559043,209.261358 C8.4559043,211.529922 6.61922461,213.368844 4.3543418,213.368844" id="Fill-42" fill="#E73F67" mask="url(#mask-10)"></path>
                    </g>
                    <g id="Group-47" transform="translate(89.824219, 0.381175)">
                        <mask id="mask-12" fill="white">
                            <use xlink:href="#path-11"></use>
                        </mask>
                        <g id="Clip-46"></g>
                        <path d="M4.20697266,213.368844 C1.94208984,213.368844 0.105410156,211.529922 0.105410156,209.261358 L0.105410156,4.13681305 C0.105410156,1.86824875 1.94208984,0.0293274472 4.20697266,0.0293274472 C6.47185547,0.0293274472 8.30853516,1.86824875 8.30853516,4.13681305 L8.30853516,209.261358 C8.30853516,211.529922 6.47185547,213.368844 4.20697266,213.368844" id="Fill-45" fill="#E73F67" mask="url(#mask-12)"></path>
                    </g>
                    <g id="Group-50" transform="translate(178.828125, 0.381175)">
                        <mask id="mask-14" fill="white">
                            <use xlink:href="#path-13"></use>
                        </mask>
                        <g id="Clip-49"></g>
                        <path d="M4.35557227,213.368844 C2.09068945,213.368844 0.254009766,211.529922 0.254009766,209.261358 L0.254009766,4.13681305 C0.254009766,1.86824875 2.09068945,0.0293274472 4.35557227,0.0293274472 C6.62045508,0.0293274472 8.45713477,1.86824875 8.45713477,4.13681305 L8.45713477,209.261358 C8.45713477,211.529922 6.62045508,213.368844 4.35557227,213.368844" id="Fill-48" fill="#E73F67" mask="url(#mask-14)"></path>
                    </g>
                    <g id="Group-53" transform="translate(111.972656, 0.381175)">
                        <mask id="mask-16" fill="white">
                            <use xlink:href="#path-15"></use>
                        </mask>
                        <g id="Clip-52"></g>
                        <path d="M4.48493555,213.368844 C2.22005273,213.368844 0.383373047,211.529922 0.383373047,209.261358 L0.383373047,4.13681305 C0.383373047,1.86824875 2.22005273,0.0293274472 4.48493555,0.0293274472 C6.74981836,0.0293274472 8.58649805,1.86824875 8.58649805,4.13681305 L8.58649805,209.261358 C8.58649805,211.529922 6.74981836,213.368844 4.48493555,213.368844" id="Fill-51" fill="#E73F67" mask="url(#mask-16)"></path>
                    </g>
                    <g id="Group-56" transform="translate(201.386719, 0.381175)">
                        <mask id="mask-18" fill="white">
                            <use xlink:href="#path-17"></use>
                        </mask>
                        <g id="Clip-55"></g>
                        <path d="M4.22337891,213.368844 C1.95849609,213.368844 0.121816406,211.529922 0.121816406,209.261358 L0.121816406,4.13681305 C0.121816406,1.86824875 1.95849609,0.0293274472 4.22337891,0.0293274472 C6.48826172,0.0293274472 8.32494141,1.86824875 8.32494141,4.13681305 L8.32494141,209.261358 C8.32494141,211.529922 6.48826172,213.368844 4.22337891,213.368844" id="Fill-54" fill="#E73F67" mask="url(#mask-18)"></path>
                    </g>
                    <g id="Group-59" transform="translate(134.531250, 0.381175)">
                        <mask id="mask-20" fill="white">
                            <use xlink:href="#path-19"></use>
                        </mask>
                        <g id="Clip-58"></g>
                        <path d="M4.35274219,213.368844 C2.08785938,213.368844 0.251179688,211.529922 0.251179688,209.261358 L0.251179688,4.13681305 C0.251179688,1.86824875 2.08785938,0.0293274472 4.35274219,0.0293274472 C6.617625,0.0293274472 8.45430469,1.86824875 8.45430469,4.13681305 L8.45430469,209.261358 C8.45430469,211.529922 6.617625,213.368844 4.35274219,213.368844" id="Fill-57" fill="#E73F67" mask="url(#mask-20)"></path>
                    </g>
                </g>
            </g>
        </g>
    </g>
</svg>
