
<svg width="214px" height="210px" viewBox="0 0 214 210" version="1.1" xmlns="http://www.w3.org/2000/svg" xmlns:xlink="http://www.w3.org/1999/xlink">
    <!-- Generator: Sketch 46.2 (44496) - http://www.bohemiancoding.com/sketch -->
    <desc>Created with Sketch.</desc>
    <defs></defs>
    <g id="Page-1" stroke="none" stroke-width="1" fill="none" fill-rule="evenodd">
        <g id="website" transform="translate(-1277.000000, -993.000000)" fill="#308D6B">
            <g id="Group-22" transform="translate(492.000000, 989.000000)">
                <g id="Group-20" transform="translate(785.000000, 4.000000)">
                    <path d="M209.583508,8.33519531 L4.4593739,8.33519531 C2.19122035,8.33519531 0.351888292,6.49892578 0.351888292,4.23363281 C0.351888292,1.96833984 2.19122035,0.132070313 4.4593739,0.132070313 L209.583508,0.132070313 C211.851662,0.132070313 213.690994,1.96833984 213.690994,4.23363281 C213.690994,6.49892578 211.851662,8.33519531 209.583508,8.33519531" id="Fill-60"></path>
                    <path d="M209.583508,30.8147109 L4.4593739,30.8147109 C2.19122035,30.8147109 0.351888292,28.9784414 0.351888292,26.7131484 C0.351888292,24.4478555 2.19122035,22.6115859 4.4593739,22.6115859 L209.583508,22.6115859 C211.851662,22.6115859 213.690994,24.4478555 213.690994,26.7131484 C213.690994,28.9784414 211.851662,30.8147109 209.583508,30.8147109" id="Fill-62"></path>
                    <path d="M209.583508,53.2939805 L4.4593739,53.2939805 C2.19122035,53.2939805 0.351888292,51.4577109 0.351888292,49.192418 C0.351888292,46.927125 2.19122035,45.0908555 4.4593739,45.0908555 L209.583508,45.0908555 C211.851662,45.0908555 213.690994,46.927125 213.690994,49.192418 C213.690994,51.4577109 211.851662,53.2939805 209.583508,53.2939805" id="Fill-64"></path>
                    <path d="M209.583508,75.8918262 L4.4593739,75.8918262 C2.19122035,75.8918262 0.351888292,74.0555566 0.351888292,71.7902637 C0.351888292,69.5249707 2.19122035,67.6887012 4.4593739,67.6887012 L209.583508,67.6887012 C211.851662,67.6887012 213.690994,69.5249707 213.690994,71.7902637 C213.690994,74.0555566 211.851662,75.8918262 209.583508,75.8918262" id="Fill-66"></path>
                    <path d="M209.583508,165.044127 L4.4593739,165.044127 C2.19122035,165.044127 0.351888292,163.207857 0.351888292,160.942564 C0.351888292,158.677271 2.19122035,156.841002 4.4593739,156.841002 L209.583508,156.841002 C211.851662,156.841002 213.690994,158.677271 213.690994,160.942564 C213.690994,163.207857 211.851662,165.044127 209.583508,165.044127" id="Fill-68"></path>
                    <path d="M209.583508,98.0414531 L4.4593739,98.0414531 C2.19122035,98.0414531 0.351888292,96.2051836 0.351888292,93.9398906 C0.351888292,91.6745977 2.19122035,89.8383281 4.4593739,89.8383281 L209.583508,89.8383281 C211.851662,89.8383281 213.690994,91.6745977 213.690994,93.9398906 C213.690994,96.2051836 211.851662,98.0414531 209.583508,98.0414531" id="Fill-70"></path>
                    <path d="M209.583508,187.193795 L4.4593739,187.193795 C2.19122035,187.193795 0.351888292,185.357525 0.351888292,183.092232 C0.351888292,180.826939 2.19122035,178.99067 4.4593739,178.99067 L209.583508,178.99067 C211.851662,178.99067 213.690994,180.826939 213.690994,183.092232 C213.690994,185.357525 211.851662,187.193795 209.583508,187.193795" id="Fill-72"></path>
                    <path d="M209.583508,120.467895 L4.4593739,120.467895 C2.19122035,120.467895 0.351888292,118.631625 0.351888292,116.366332 C0.351888292,114.101039 2.19122035,112.26477 4.4593739,112.26477 L209.583508,112.26477 C211.851662,112.26477 213.690994,114.101039 213.690994,116.366332 C213.690994,118.631625 211.851662,120.467895 209.583508,120.467895" id="Fill-74"></path>
                    <path d="M209.23162,209.203125 L4.1074856,209.203125 C1.83933205,209.203125 0,207.366855 0,205.101562 C0,202.83627 1.83933205,201 4.1074856,201 L209.23162,201 C211.499774,201 213.339106,202.83627 213.339106,205.101562 C213.339106,207.366855 211.499774,209.203125 209.23162,209.203125" id="Fill-76"></path>
                    <path d="M209.583508,142.8945 L4.4593739,142.8945 C2.19122035,142.8945 0.351888292,141.05823 0.351888292,138.792937 C0.351888292,136.527645 2.19122035,134.691375 4.4593739,134.691375 L209.583508,134.691375 C211.851662,134.691375 213.690994,136.527645 213.690994,138.792937 C213.690994,141.05823 211.851662,142.8945 209.583508,142.8945" id="Fill-78"></path>
                </g>
            </g>
        </g>
    </g>
</svg>
