
<svg width="252px" height="139px" viewBox="0 0 252 139" version="1.1" xmlns="http://www.w3.org/2000/svg" xmlns:xlink="http://www.w3.org/1999/xlink">
    <!-- Generator: Sketch 46.2 (44496) - http://www.bohemiancoding.com/sketch -->
    <desc>Created with Sketch.</desc>
    <defs></defs>
    <g id="Page-1" stroke="none" stroke-width="1" fill="none" fill-rule="evenodd">
        <g id="website-copy">
            <g id="Group" transform="translate(0.000000, 72.031726)">
                <path d="M27.5165544,47.9327385 L1.48738132,47.9327385 C0.665900616,47.9327385 0,47.2620762 0,46.4350557 C0,45.6080353 0.665900616,44.937373 1.48738132,44.937373 L27.5165544,44.937373 C32.9295812,44.937373 37.3332711,40.5031836 37.3332711,35.0526667 L37.3332711,30.859155 C37.3332711,25.4086381 32.9295812,20.9744488 27.5165544,20.9744488 L1.48738132,20.9744488 C0.665900616,20.9744488 0,20.3037864 0,19.476766 C0,18.6497456 0.665900616,17.9790832 1.48738132,17.9790832 L27.5165544,17.9790832 C34.5697166,17.9790832 40.3080337,23.7569936 40.3080337,30.859155 L40.3080337,35.0526667 C40.3080337,42.1548282 34.5697166,47.9327385 27.5165544,47.9327385" id="Fill-16" fill="#2274A5"></path>
                <path d="M25.2854824,38.9466419 L1.48738132,38.9466419 C0.665900616,38.9466419 0,38.2759796 0,37.4489592 C0,36.6219387 0.665900616,35.9512764 1.48738132,35.9512764 L25.2854824,35.9512764 C26.9257665,35.9512764 28.260245,34.6075554 28.260245,32.9559109 C28.260245,31.3042663 26.9257665,29.9605453 25.2854824,29.9605453 L1.48738132,29.9605453 C0.665900616,29.9605453 0,29.289883 0,28.4628626 C0,27.6358422 0.665900616,26.9651798 1.48738132,26.9651798 L25.2854824,26.9651798 C28.5660506,26.9651798 31.2350077,29.6526218 31.2350077,32.9559109 C31.2350077,36.2592 28.5660506,38.9466419 25.2854824,38.9466419" id="Fill-18" fill="#2274A5"></path>
                <path d="M28.5577213,56.9188351 L1.48738132,56.9188351 C0.665900616,56.9188351 0,56.2481727 0,55.4211523 C0,54.5941319 0.665900616,53.9234695 1.48738132,53.9234695 L28.5577213,53.9234695 C38.2353678,53.9234695 46.1088208,45.9954858 46.1088208,36.2508129 L46.1088208,29.6610088 C46.1088208,19.9163359 38.2353678,11.9883522 28.5577213,11.9883522 L1.48738132,11.9883522 C0.665900616,11.9883522 0,11.3176898 0,10.4906694 C0,9.66364901 0.665900616,8.99298666 1.48738132,8.99298666 L28.5577213,8.99298666 C39.8756519,8.99298666 49.0835835,18.2645416 49.0835835,29.6610088 L49.0835835,36.2508129 C49.0835835,47.6472802 39.8756519,56.9188351 28.5577213,56.9188351" id="Fill-20" fill="#2274A5"></path>
                <path d="M32.722389,65.8980416 L1.48738132,65.8980416 C0.665900616,65.8980416 0,65.2273792 0,64.4003588 C0,63.5733384 0.665900616,62.902676 1.48738132,62.902676 L32.722389,62.902676 C45.0245198,62.902676 55.0331087,52.8247687 55.0331087,40.4374346 L55.0331087,25.460607 C55.0331087,13.0732728 45.0245198,2.99536553 32.722389,2.99536553 L1.48738132,2.99536553 C0.665900616,2.99536553 0,2.32470318 0,1.49768276 C0,0.670662341 0.665900616,0 1.48738132,0 L32.722389,0 C46.664804,0 58.0078714,11.4216283 58.0078714,25.460607 L58.0078714,40.4374346 C58.0078714,54.4764133 46.664804,65.8980416 32.722389,65.8980416" id="Fill-22" fill="#2274A5"></path>
                <path d="M120.775363,47.9327385 L94.7461899,47.9327385 C87.6930277,47.9327385 81.9547106,42.1548282 81.9547106,35.0526667 L81.9547106,30.859155 C81.9547106,23.7569936 87.6930277,17.9790832 94.7461899,17.9790832 L120.775363,17.9790832 C121.596844,17.9790832 122.262744,18.6497456 122.262744,19.476766 C122.262744,20.3037864 121.596844,20.9744488 120.775363,20.9744488 L94.7461899,20.9744488 C89.3331631,20.9744488 84.9294732,25.4086381 84.9294732,30.859155 L84.9294732,35.0526667 C84.9294732,40.5031836 89.3331631,44.937373 94.7461899,44.937373 L120.775363,44.937373 C121.596844,44.937373 122.262744,45.6080353 122.262744,46.4350557 C122.262744,47.2620762 121.596844,47.9327385 120.775363,47.9327385" id="Fill-24" fill="#32936F"></path>
                <path d="M120.775363,38.9466419 L96.9772619,38.9466419 C93.6966936,38.9466419 91.0277366,36.2592 91.0277366,32.9559109 C91.0277366,29.6526218 93.6966936,26.9651798 96.9772619,26.9651798 L120.775363,26.9651798 C121.596844,26.9651798 122.262744,27.6358422 122.262744,28.4628626 C122.262744,29.289883 121.596844,29.9605453 120.775363,29.9605453 L96.9772619,29.9605453 C95.3369778,29.9605453 94.0024992,31.3042663 94.0024992,32.9559109 C94.0024992,34.6075554 95.3369778,35.9512764 96.9772619,35.9512764 L120.775363,35.9512764 C121.596844,35.9512764 122.262744,36.6219387 122.262744,37.4489592 C122.262744,38.2759796 121.596844,38.9466419 120.775363,38.9466419" id="Fill-26" fill="#32936F"></path>
                <path d="M120.775363,56.9188351 L93.705023,56.9188351 C82.3870923,56.9188351 73.1791608,47.6472802 73.1791608,36.2508129 L73.1791608,29.6610088 C73.1791608,18.2645416 82.3870923,8.99298666 93.705023,8.99298666 L120.775363,8.99298666 C121.596844,8.99298666 122.262744,9.66364901 122.262744,10.4906694 C122.262744,11.3176898 121.596844,11.9883522 120.775363,11.9883522 L93.705023,11.9883522 C84.0273764,11.9883522 76.1539234,19.9163359 76.1539234,29.6610088 L76.1539234,36.2508129 C76.1539234,45.9954858 84.0273764,53.9234695 93.705023,53.9234695 L120.775363,53.9234695 C121.596844,53.9234695 122.262744,54.5941319 122.262744,55.4211523 C122.262744,56.2481727 121.596844,56.9188351 120.775363,56.9188351" id="Fill-28" fill="#32936F"></path>
                <path d="M120.713247,65.8980416 L89.4782388,65.8980416 C75.5358239,65.8980416 64.1927565,54.4764133 64.1927565,40.4374346 L64.1927565,25.460607 C64.1927565,11.4216283 75.5358239,0 89.4782388,0 L120.713247,0 C121.534727,0 122.200628,0.670662341 122.200628,1.49768276 C122.200628,2.32470318 121.534727,2.99536553 120.713247,2.99536553 L89.4782388,2.99536553 C77.176108,2.99536553 67.1675191,13.0732728 67.1675191,25.460607 L67.1675191,40.4374346 C67.1675191,52.8247687 77.176108,62.902676 89.4782388,62.902676 L120.713247,62.902676 C121.534727,62.902676 122.200628,63.5733384 122.200628,64.4003588 C122.200628,65.2273792 121.534727,65.8980416 120.713247,65.8980416" id="Fill-30" fill="#32936F"></path>
            </g>
            <g id="Group-Copy" transform="translate(128.538718, 0.000000)">
                <path d="M27.5165544,47.9327385 L1.48738132,47.9327385 C0.665900616,47.9327385 0,47.2620762 0,46.4350557 C0,45.6080353 0.665900616,44.937373 1.48738132,44.937373 L27.5165544,44.937373 C32.9295812,44.937373 37.3332711,40.5031836 37.3332711,35.0526667 L37.3332711,30.859155 C37.3332711,25.4086381 32.9295812,20.9744488 27.5165544,20.9744488 L1.48738132,20.9744488 C0.665900616,20.9744488 0,20.3037864 0,19.476766 C0,18.6497456 0.665900616,17.9790832 1.48738132,17.9790832 L27.5165544,17.9790832 C34.5697166,17.9790832 40.3080337,23.7569936 40.3080337,30.859155 L40.3080337,35.0526667 C40.3080337,42.1548282 34.5697166,47.9327385 27.5165544,47.9327385" id="Fill-16" fill="#2274A5"></path>
                <path d="M25.2854824,38.9466419 L1.48738132,38.9466419 C0.665900616,38.9466419 0,38.2759796 0,37.4489592 C0,36.6219387 0.665900616,35.9512764 1.48738132,35.9512764 L25.2854824,35.9512764 C26.9257665,35.9512764 28.260245,34.6075554 28.260245,32.9559109 C28.260245,31.3042663 26.9257665,29.9605453 25.2854824,29.9605453 L1.48738132,29.9605453 C0.665900616,29.9605453 0,29.289883 0,28.4628626 C0,27.6358422 0.665900616,26.9651798 1.48738132,26.9651798 L25.2854824,26.9651798 C28.5660506,26.9651798 31.2350077,29.6526218 31.2350077,32.9559109 C31.2350077,36.2592 28.5660506,38.9466419 25.2854824,38.9466419" id="Fill-18" fill="#2274A5"></path>
                <path d="M28.5577213,56.9188351 L1.48738132,56.9188351 C0.665900616,56.9188351 0,56.2481727 0,55.4211523 C0,54.5941319 0.665900616,53.9234695 1.48738132,53.9234695 L28.5577213,53.9234695 C38.2353678,53.9234695 46.1088208,45.9954858 46.1088208,36.2508129 L46.1088208,29.6610088 C46.1088208,19.9163359 38.2353678,11.9883522 28.5577213,11.9883522 L1.48738132,11.9883522 C0.665900616,11.9883522 0,11.3176898 0,10.4906694 C0,9.66364901 0.665900616,8.99298666 1.48738132,8.99298666 L28.5577213,8.99298666 C39.8756519,8.99298666 49.0835835,18.2645416 49.0835835,29.6610088 L49.0835835,36.2508129 C49.0835835,47.6472802 39.8756519,56.9188351 28.5577213,56.9188351" id="Fill-20" fill="#2274A5"></path>
                <path d="M32.722389,65.8980416 L1.48738132,65.8980416 C0.665900616,65.8980416 0,65.2273792 0,64.4003588 C0,63.5733384 0.665900616,62.902676 1.48738132,62.902676 L32.722389,62.902676 C45.0245198,62.902676 55.0331087,52.8247687 55.0331087,40.4374346 L55.0331087,25.460607 C55.0331087,13.0732728 45.0245198,2.99536553 32.722389,2.99536553 L1.48738132,2.99536553 C0.665900616,2.99536553 0,2.32470318 0,1.49768276 C0,0.670662341 0.665900616,0 1.48738132,0 L32.722389,0 C46.664804,0 58.0078714,11.4216283 58.0078714,25.460607 L58.0078714,40.4374346 C58.0078714,54.4764133 46.664804,65.8980416 32.722389,65.8980416" id="Fill-22" fill="#2274A5"></path>
                <path d="M120.775363,47.9327385 L94.7461899,47.9327385 C87.6930277,47.9327385 81.9547106,42.1548282 81.9547106,35.0526667 L81.9547106,30.859155 C81.9547106,23.7569936 87.6930277,17.9790832 94.7461899,17.9790832 L120.775363,17.9790832 C121.596844,17.9790832 122.262744,18.6497456 122.262744,19.476766 C122.262744,20.3037864 121.596844,20.9744488 120.775363,20.9744488 L94.7461899,20.9744488 C89.3331631,20.9744488 84.9294732,25.4086381 84.9294732,30.859155 L84.9294732,35.0526667 C84.9294732,40.5031836 89.3331631,44.937373 94.7461899,44.937373 L120.775363,44.937373 C121.596844,44.937373 122.262744,45.6080353 122.262744,46.4350557 C122.262744,47.2620762 121.596844,47.9327385 120.775363,47.9327385" id="Fill-24" fill="#32936F"></path>
                <path d="M120.775363,38.9466419 L96.9772619,38.9466419 C93.6966936,38.9466419 91.0277366,36.2592 91.0277366,32.9559109 C91.0277366,29.6526218 93.6966936,26.9651798 96.9772619,26.9651798 L120.775363,26.9651798 C121.596844,26.9651798 122.262744,27.6358422 122.262744,28.4628626 C122.262744,29.289883 121.596844,29.9605453 120.775363,29.9605453 L96.9772619,29.9605453 C95.3369778,29.9605453 94.0024992,31.3042663 94.0024992,32.9559109 C94.0024992,34.6075554 95.3369778,35.9512764 96.9772619,35.9512764 L120.775363,35.9512764 C121.596844,35.9512764 122.262744,36.6219387 122.262744,37.4489592 C122.262744,38.2759796 121.596844,38.9466419 120.775363,38.9466419" id="Fill-26" fill="#32936F"></path>
                <path d="M120.775363,56.9188351 L93.705023,56.9188351 C82.3870923,56.9188351 73.1791608,47.6472802 73.1791608,36.2508129 L73.1791608,29.6610088 C73.1791608,18.2645416 82.3870923,8.99298666 93.705023,8.99298666 L120.775363,8.99298666 C121.596844,8.99298666 122.262744,9.66364901 122.262744,10.4906694 C122.262744,11.3176898 121.596844,11.9883522 120.775363,11.9883522 L93.705023,11.9883522 C84.0273764,11.9883522 76.1539234,19.9163359 76.1539234,29.6610088 L76.1539234,36.2508129 C76.1539234,45.9954858 84.0273764,53.9234695 93.705023,53.9234695 L120.775363,53.9234695 C121.596844,53.9234695 122.262744,54.5941319 122.262744,55.4211523 C122.262744,56.2481727 121.596844,56.9188351 120.775363,56.9188351" id="Fill-28" fill="#32936F"></path>
                <path d="M120.713247,65.8980416 L89.4782388,65.8980416 C75.5358239,65.8980416 64.1927565,54.4764133 64.1927565,40.4374346 L64.1927565,25.460607 C64.1927565,11.4216283 75.5358239,0 89.4782388,0 L120.713247,0 C121.534727,0 122.200628,0.670662341 122.200628,1.49768276 C122.200628,2.32470318 121.534727,2.99536553 120.713247,2.99536553 L89.4782388,2.99536553 C77.176108,2.99536553 67.1675191,13.0732728 67.1675191,25.460607 L67.1675191,40.4374346 C67.1675191,52.8247687 77.176108,62.902676 89.4782388,62.902676 L120.713247,62.902676 C121.534727,62.902676 122.200628,63.5733384 122.200628,64.4003588 C122.200628,65.2273792 121.534727,65.8980416 120.713247,65.8980416" id="Fill-30" fill="#32936F"></path>
            </g>
            <g id="Group-2" transform="translate(0.130002, 0.000000)">
                <g id="Group-11" transform="translate(66.000000, 0.000000)" fill="#E83F6F">
                    <g id="Group-3" transform="translate(11.492567, 0.000000)">
                        <path d="M6.47060935,65.8982662 C6.17938009,65.8982662 5.8853248,65.812449 5.62756162,65.6333261 C4.95124934,65.1638026 4.78109291,64.2310458 5.24753569,63.5500494 L5.25616251,63.5373191 C8.28625572,59.1533021 9.88757045,54.0187963 9.89069395,48.6839005 C9.89381745,43.348855 8.29830351,38.2124022 5.27683711,33.8300327 L5.21005368,33.7329828 C1.85348027,28.8644655 0.0576160642,23.1588932 0.0161181255,17.2328621 C-0.0252310751,11.3066811 1.69076075,5.57609758 4.97876589,0.661002287 C5.43777176,-0.0247866497 6.36217925,-0.206455569 7.0433999,0.255579563 C7.72476928,0.717614696 7.90503989,1.64842453 7.44603402,2.33451301 C4.49417706,6.74713573 2.95369623,11.8913765 2.99088076,17.2117447 C3.02791655,22.5318134 4.6402379,27.654188 7.65352371,32.0245761 L7.72015839,32.1214762 C11.0898208,37.0087146 12.8688776,42.7364525 12.8654566,48.6853982 C12.8620356,54.6346435 11.0762856,60.3601349 7.70141739,65.2431798 L7.69636029,65.250818 C7.40780832,65.6719663 6.94315039,65.8982662 6.47060935,65.8982662" id="Fill-1"></path>
                    </g>
                    <g id="Group-6" transform="translate(0.802157, 0.000000)">
                        <path d="M6.56342703,65.8982662 C6.27219777,65.8982662 5.97814248,65.812449 5.7203793,65.6333261 C5.04406702,65.1638026 4.87391059,64.2310458 5.34035338,63.5500494 L5.34898019,63.5373191 C8.37907341,59.1533021 9.98038813,54.0187963 9.98351163,48.6839005 C9.98663513,43.348855 8.3911212,38.2124022 5.36965479,33.8300327 L5.30287137,33.7329828 C1.94629795,28.8644655 0.150433746,23.1588932 0.108935808,17.2328621 C0.067586607,11.3066811 1.78357843,5.57609758 5.07158357,0.661002287 C5.53058945,-0.0247866497 6.45499693,-0.206455569 7.13621758,0.255579563 C7.81758696,0.717614696 7.99785757,1.64842453 7.5388517,2.33451301 C4.58699474,6.74713573 3.04651391,11.8913765 3.08369844,17.2117447 C3.12073424,22.5318134 4.73305558,27.654188 7.74634139,32.0245761 L7.81297608,32.1214762 C11.1826385,37.0087146 12.9616952,42.7364525 12.9582743,48.6853982 C12.9548533,54.6346435 11.1691033,60.3601349 7.79423507,65.2431798 L7.78917798,65.250818 C7.500626,65.6719663 7.03596808,65.8982662 6.56342703,65.8982662" id="Fill-4"></path>
                    </g>
                    <g id="Group-9" transform="translate(22.071710, 0.000000)">
                        <path d="M6.48905797,65.8982662 C6.19782871,65.8982662 5.90377342,65.812449 5.64601024,65.6333261 C4.96969795,65.1638026 4.79954153,64.2310458 5.26598431,63.5500494 L5.27461112,63.5373191 C8.30470434,59.1533021 9.90601907,54.0187963 9.90914257,48.6839005 C9.91226607,43.348855 8.31675213,38.2124022 5.29528572,33.8300327 L5.2285023,33.7329828 C1.87192888,28.8644655 0.0760646806,23.1588932 0.0345667418,17.2328621 C-0.00678245881,11.3066811 1.70920937,5.57609758 4.99721451,0.661002287 C5.45622038,-0.0247866497 6.38062787,-0.206455569 7.06184851,0.255579563 C7.74321789,0.717614696 7.92348851,1.64842453 7.46448263,2.33451301 C4.51262567,6.74713573 2.97214484,11.8913765 3.00932938,17.2117447 C3.04636517,22.5318134 4.65868652,27.654188 7.67197233,32.0245761 L7.73860701,32.1214762 C11.1082694,37.0087146 12.8873262,42.7364525 12.8839052,48.6853982 C12.8804842,54.6346435 11.0947342,60.3601349 7.71986601,65.2431798 L7.71480891,65.250818 C7.42625693,65.6719663 6.96159901,65.8982662 6.48905797,65.8982662" id="Fill-7"></path>
                    </g>
                    <g id="Group-12" transform="translate(32.632117, 0.000000)">
                        <path d="M6.5262425,65.8982662 C6.23501324,65.8982662 5.94095795,65.812449 5.68319477,65.6333261 C5.00688248,65.1638026 4.83672606,64.2310458 5.30316884,63.5500494 L5.31179565,63.5373191 C8.34188887,59.1533021 9.9432036,54.0187963 9.9463271,48.6839005 C9.9494506,43.348855 8.35393666,38.2124022 5.33247025,33.8300327 L5.26568683,33.7329828 C1.90911342,28.8644655 0.113249213,23.1588932 0.0717512747,17.2328621 C0.0304020741,11.3066811 1.7463939,5.57609758 5.03439904,0.661002287 C5.49340491,-0.0247866497 6.4178124,-0.206455569 7.09903305,0.255579563 C7.78040243,0.717614696 7.96067304,1.64842453 7.50166717,2.33451301 C4.54981021,6.74713573 3.00932938,11.8913765 3.04651391,17.2117447 C3.0835497,22.5318134 4.69587105,27.654188 7.70915686,32.0245761 L7.77579154,32.1214762 C11.1454539,37.0087146 12.9245107,42.7364525 12.9210897,48.6853982 C12.9176688,54.6346435 11.1319187,60.3601349 7.75705054,65.2431798 L7.75199344,65.250818 C7.46344147,65.6719663 6.99878354,65.8982662 6.5262425,65.8982662" id="Fill-10"></path>
                    </g>
                    <g id="Group-15" transform="translate(43.192525, 0.000000)">
                        <path d="M6.56342703,65.8982662 C6.27219777,65.8982662 5.97814248,65.812449 5.7203793,65.6333261 C5.04406702,65.1638026 4.87391059,64.2310458 5.34035338,63.5500494 L5.34898019,63.5373191 C8.37907341,59.1533021 9.98038813,54.0187963 9.98351163,48.6839005 C9.98663513,43.348855 8.3911212,38.2124022 5.36965479,33.8300327 L5.30287137,33.7329828 C1.94629795,28.8644655 0.150433746,23.1588932 0.108935808,17.2328621 C0.067586607,11.3066811 1.78357843,5.57609758 5.07158357,0.661002287 C5.53058945,-0.0247866497 6.45499693,-0.206455569 7.13621758,0.255579563 C7.81758696,0.717614696 7.99785757,1.64842453 7.5388517,2.33451301 C4.58699474,6.74713573 3.04651391,11.8913765 3.08369844,17.2117447 C3.12073424,22.5318134 4.73305558,27.654188 7.74634139,32.0245761 L7.81297608,32.1214762 C11.1826385,37.0087146 12.9616952,42.7364525 12.9582743,48.6853982 C12.9548533,54.6346435 11.1691033,60.3601349 7.79423507,65.2431798 L7.78917798,65.250818 C7.500626,65.6719663 7.03596808,65.8982662 6.56342703,65.8982662" id="Fill-13"></path>
                    </g>
                </g>
                <path d="M1.50611723,39.1991044 C0.684636532,39.1991044 0.0187359166,38.5223958 0.0187359166,37.6879194 C0.0187359166,36.8534431 0.684636532,36.1767345 1.50611723,36.1767345 L15.4875016,36.1767345 C22.5406638,36.1767345 28.2789809,30.346734 28.2789809,23.1805438 L28.2789809,1.93066538 C28.2789809,1.09618905 28.9448816,0.419480421 29.7663623,0.419480421 C30.587843,0.419480421 31.2537436,1.09618905 31.2537436,1.93066538 L31.2537436,23.1805438 C31.2537436,32.0131177 24.1810967,39.1991044 15.4875016,39.1991044 L1.50611723,39.1991044 Z" id="Fill-32" fill="#FFBF00"></path>
                <path d="M1.50611723,30.1319947 C0.684636532,30.1319947 0.0187359166,29.455286 0.0187359166,28.6208097 C0.0187359166,27.7863334 0.684636532,27.1096247 1.50611723,27.1096247 L11.3228339,27.1096247 C15.7516605,27.1096247 19.354693,23.4487792 19.354693,18.949226 L19.354693,1.93066538 C19.354693,1.09618905 20.0205937,0.419480421 20.8420744,0.419480421 C21.6635551,0.419480421 22.3294557,1.09618905 22.3294557,1.93066538 L22.3294557,18.949226 C22.3294557,25.1154651 17.3919447,30.1319947 11.3228339,30.1319947 L1.50611723,30.1319947 Z" id="Fill-34" fill="#FFBF00"></path>
                <path d="M1.50611723,57.3333239 C0.684636532,57.3333239 0.0187359166,56.6566153 0.0187359166,55.822139 C0.0187359166,54.9876626 0.684636532,54.310954 1.50611723,54.310954 L23.816837,54.310954 C36.1189679,54.310954 46.1275567,44.1421904 46.1275567,31.6431796 L46.1275567,1.93066538 C46.1275567,1.09618905 46.7934574,0.419480421 47.6149381,0.419480421 C48.4364188,0.419480421 49.1023194,1.09618905 49.1023194,1.93066538 L49.1023194,31.6431796 C49.1023194,45.8087252 37.759252,57.3333239 23.816837,57.3333239 L1.50611723,57.3333239 Z" id="Fill-36" fill="#FFBF00"></path>
                <path d="M1.50611723,48.2662142 C0.684636532,48.2662142 0.0187359166,47.5895055 0.0187359166,46.7550292 C0.0187359166,45.9205529 0.684636532,45.2438442 1.50611723,45.2438442 L19.6521693,45.2438442 C29.3298158,45.2438442 37.2032688,37.2443867 37.2032688,27.4118617 L37.2032688,1.93066538 C37.2032688,1.09618905 37.8691695,0.419480421 38.6906502,0.419480421 C39.5121309,0.419480421 40.1780315,1.09618905 40.1780315,1.93066538 L40.1780315,27.4118617 C40.1780315,38.9110726 30.9701,48.2662142 19.6521693,48.2662142 L1.50611723,48.2662142 Z" id="Fill-38" fill="#FFBF00"></path>
                <path d="M1.50611723,66.4004337 C0.684636532,66.4004337 0.0187359166,65.7237251 0.0187359166,64.8892487 C0.0187359166,64.0547724 0.684636532,63.3780638 1.50611723,63.3780638 L27.9815047,63.3780638 C42.9081199,63.3780638 55.0518446,51.0399942 55.0518446,35.8744975 L55.0518446,1.93066538 C55.0518446,1.09618905 55.7177453,0.419480421 56.539226,0.419480421 C57.3607067,0.419480421 58.0266073,1.09618905 58.0266073,1.93066538 L58.0266073,35.8744975 C58.0266073,52.7065289 44.548404,66.4004337 27.9815047,66.4004337 L1.50611723,66.4004337 Z" id="Fill-40" fill="#FFBF00"></path>
            </g>
            <g id="Group-Copy" transform="translate(128.538718, 0.000000)">
                <path d="M27.5165544,47.9327385 L1.48738132,47.9327385 C0.665900616,47.9327385 0,47.2620762 0,46.4350557 C0,45.6080353 0.665900616,44.937373 1.48738132,44.937373 L27.5165544,44.937373 C32.9295812,44.937373 37.3332711,40.5031836 37.3332711,35.0526667 L37.3332711,30.859155 C37.3332711,25.4086381 32.9295812,20.9744488 27.5165544,20.9744488 L1.48738132,20.9744488 C0.665900616,20.9744488 0,20.3037864 0,19.476766 C0,18.6497456 0.665900616,17.9790832 1.48738132,17.9790832 L27.5165544,17.9790832 C34.5697166,17.9790832 40.3080337,23.7569936 40.3080337,30.859155 L40.3080337,35.0526667 C40.3080337,42.1548282 34.5697166,47.9327385 27.5165544,47.9327385" id="Fill-16" fill="#2274A5"></path>
                <path d="M25.2854824,38.9466419 L1.48738132,38.9466419 C0.665900616,38.9466419 0,38.2759796 0,37.4489592 C0,36.6219387 0.665900616,35.9512764 1.48738132,35.9512764 L25.2854824,35.9512764 C26.9257665,35.9512764 28.260245,34.6075554 28.260245,32.9559109 C28.260245,31.3042663 26.9257665,29.9605453 25.2854824,29.9605453 L1.48738132,29.9605453 C0.665900616,29.9605453 0,29.289883 0,28.4628626 C0,27.6358422 0.665900616,26.9651798 1.48738132,26.9651798 L25.2854824,26.9651798 C28.5660506,26.9651798 31.2350077,29.6526218 31.2350077,32.9559109 C31.2350077,36.2592 28.5660506,38.9466419 25.2854824,38.9466419" id="Fill-18" fill="#2274A5"></path>
                <path d="M28.5577213,56.9188351 L1.48738132,56.9188351 C0.665900616,56.9188351 0,56.2481727 0,55.4211523 C0,54.5941319 0.665900616,53.9234695 1.48738132,53.9234695 L28.5577213,53.9234695 C38.2353678,53.9234695 46.1088208,45.9954858 46.1088208,36.2508129 L46.1088208,29.6610088 C46.1088208,19.9163359 38.2353678,11.9883522 28.5577213,11.9883522 L1.48738132,11.9883522 C0.665900616,11.9883522 0,11.3176898 0,10.4906694 C0,9.66364901 0.665900616,8.99298666 1.48738132,8.99298666 L28.5577213,8.99298666 C39.8756519,8.99298666 49.0835835,18.2645416 49.0835835,29.6610088 L49.0835835,36.2508129 C49.0835835,47.6472802 39.8756519,56.9188351 28.5577213,56.9188351" id="Fill-20" fill="#2274A5"></path>
                <path d="M32.722389,65.8980416 L1.48738132,65.8980416 C0.665900616,65.8980416 0,65.2273792 0,64.4003588 C0,63.5733384 0.665900616,62.902676 1.48738132,62.902676 L32.722389,62.902676 C45.0245198,62.902676 55.0331087,52.8247687 55.0331087,40.4374346 L55.0331087,25.460607 C55.0331087,13.0732728 45.0245198,2.99536553 32.722389,2.99536553 L1.48738132,2.99536553 C0.665900616,2.99536553 0,2.32470318 0,1.49768276 C0,0.670662341 0.665900616,0 1.48738132,0 L32.722389,0 C46.664804,0 58.0078714,11.4216283 58.0078714,25.460607 L58.0078714,40.4374346 C58.0078714,54.4764133 46.664804,65.8980416 32.722389,65.8980416" id="Fill-22" fill="#2274A5"></path>
                <path d="M120.775363,47.9327385 L94.7461899,47.9327385 C87.6930277,47.9327385 81.9547106,42.1548282 81.9547106,35.0526667 L81.9547106,30.859155 C81.9547106,23.7569936 87.6930277,17.9790832 94.7461899,17.9790832 L120.775363,17.9790832 C121.596844,17.9790832 122.262744,18.6497456 122.262744,19.476766 C122.262744,20.3037864 121.596844,20.9744488 120.775363,20.9744488 L94.7461899,20.9744488 C89.3331631,20.9744488 84.9294732,25.4086381 84.9294732,30.859155 L84.9294732,35.0526667 C84.9294732,40.5031836 89.3331631,44.937373 94.7461899,44.937373 L120.775363,44.937373 C121.596844,44.937373 122.262744,45.6080353 122.262744,46.4350557 C122.262744,47.2620762 121.596844,47.9327385 120.775363,47.9327385" id="Fill-24" fill="#32936F"></path>
                <path d="M120.775363,38.9466419 L96.9772619,38.9466419 C93.6966936,38.9466419 91.0277366,36.2592 91.0277366,32.9559109 C91.0277366,29.6526218 93.6966936,26.9651798 96.9772619,26.9651798 L120.775363,26.9651798 C121.596844,26.9651798 122.262744,27.6358422 122.262744,28.4628626 C122.262744,29.289883 121.596844,29.9605453 120.775363,29.9605453 L96.9772619,29.9605453 C95.3369778,29.9605453 94.0024992,31.3042663 94.0024992,32.9559109 C94.0024992,34.6075554 95.3369778,35.9512764 96.9772619,35.9512764 L120.775363,35.9512764 C121.596844,35.9512764 122.262744,36.6219387 122.262744,37.4489592 C122.262744,38.2759796 121.596844,38.9466419 120.775363,38.9466419" id="Fill-26" fill="#32936F"></path>
                <path d="M120.775363,56.9188351 L93.705023,56.9188351 C82.3870923,56.9188351 73.1791608,47.6472802 73.1791608,36.2508129 L73.1791608,29.6610088 C73.1791608,18.2645416 82.3870923,8.99298666 93.705023,8.99298666 L120.775363,8.99298666 C121.596844,8.99298666 122.262744,9.66364901 122.262744,10.4906694 C122.262744,11.3176898 121.596844,11.9883522 120.775363,11.9883522 L93.705023,11.9883522 C84.0273764,11.9883522 76.1539234,19.9163359 76.1539234,29.6610088 L76.1539234,36.2508129 C76.1539234,45.9954858 84.0273764,53.9234695 93.705023,53.9234695 L120.775363,53.9234695 C121.596844,53.9234695 122.262744,54.5941319 122.262744,55.4211523 C122.262744,56.2481727 121.596844,56.9188351 120.775363,56.9188351" id="Fill-28" fill="#32936F"></path>
            </g>
            <g id="Group-8" transform="translate(129.000000, 72.000000)">
                <g id="Group-5" transform="translate(66.000000, 0.000000)" fill="#E83F6F">
                    <path d="M17.963176,65.8982662 C17.6719467,65.8982662 17.3778914,65.812449 17.1201282,65.6333261 C16.443816,65.1638026 16.2736595,64.2310458 16.7401023,63.5500494 L16.7487291,63.5373191 C19.7788223,59.1533021 21.3801371,54.0187963 21.3832606,48.6839005 C21.3863841,43.348855 19.7908701,38.2124022 16.7694037,33.8300327 L16.7026203,33.7329828 C13.3460469,28.8644655 11.5501827,23.1588932 11.5086847,17.2328621 C11.4673355,11.3066811 13.1833274,5.57609758 16.4713325,0.661002287 C16.9303384,-0.0247866497 17.8547459,-0.206455569 18.5359665,0.255579563 C19.2173359,0.717614696 19.3976065,1.64842453 18.9386006,2.33451301 C15.9867437,6.74713573 14.4462628,11.8913765 14.4834474,17.2117447 C14.5204832,22.5318134 16.1328045,27.654188 19.1460903,32.0245761 L19.212725,32.1214762 C22.5823874,37.0087146 24.3614442,42.7364525 24.3580232,48.6853982 C24.3546022,54.6346435 22.5688522,60.3601349 19.193984,65.2431798 L19.1889269,65.250818 C18.9003749,65.6719663 18.435717,65.8982662 17.963176,65.8982662" id="Fill-1"></path>
                    <path d="M7.36558408,65.8982662 C7.07435482,65.8982662 6.78029953,65.812449 6.52253635,65.6333261 C5.84622407,65.1638026 5.67606764,64.2310458 6.14251043,63.5500494 L6.15113724,63.5373191 C9.18123046,59.1533021 10.7825452,54.0187963 10.7856687,48.6839005 C10.7887922,43.348855 9.19327824,38.2124022 6.17181184,33.8300327 L6.10502842,33.7329828 C2.748455,28.8644655 0.952590796,23.1588932 0.911092857,17.2328621 C0.869743657,11.3066811 2.58573548,5.57609758 5.87374062,0.661002287 C6.3327465,-0.0247866497 7.25715398,-0.206455569 7.93837463,0.255579563 C8.61974401,0.717614696 8.80001462,1.64842453 8.34100875,2.33451301 C5.38915179,6.74713573 3.84867096,11.8913765 3.88585549,17.2117447 C3.92289129,22.5318134 5.53521263,27.654188 8.54849844,32.0245761 L8.61513313,32.1214762 C11.9847955,37.0087146 13.7638523,42.7364525 13.7604313,48.6853982 C13.7570103,54.6346435 11.9712603,60.3601349 8.59639212,65.2431798 L8.59133503,65.250818 C8.30278305,65.6719663 7.83812513,65.8982662 7.36558408,65.8982662" id="Fill-4"></path>
                    <path d="M28.5607678,65.8982662 C28.2695386,65.8982662 27.9754833,65.812449 27.7177201,65.6333261 C27.0414078,65.1638026 26.8712514,64.2310458 27.3376942,63.5500494 L27.346321,63.5373191 C30.3764142,59.1533021 31.9777289,54.0187963 31.9808524,48.6839005 C31.983976,43.348855 30.388462,38.2124022 27.3669956,33.8300327 L27.3002122,33.7329828 C23.9436388,28.8644655 22.1477746,23.1588932 22.1062766,17.2328621 C22.0649274,11.3066811 23.7809192,5.57609758 27.0689244,0.661002287 C27.5279303,-0.0247866497 28.4523378,-0.206455569 29.1335584,0.255579563 C29.8149278,0.717614696 29.9951984,1.64842453 29.5361925,2.33451301 C26.5843356,6.74713573 25.0438547,11.8913765 25.0810393,17.2117447 C25.1180751,22.5318134 26.7303964,27.654188 29.7436822,32.0245761 L29.8103169,32.1214762 C33.1799793,37.0087146 34.9590361,42.7364525 34.9556151,48.6853982 C34.9521941,54.6346435 33.1664441,60.3601349 29.7915759,65.2431798 L29.7865188,65.250818 C29.4979668,65.6719663 29.0333089,65.8982662 28.5607678,65.8982662" id="Fill-7"></path>
                    <path d="M39.1583597,65.8982662 C38.8671305,65.8982662 38.5730752,65.812449 38.315312,65.6333261 C37.6389997,65.1638026 37.4688433,64.2310458 37.9352861,63.5500494 L37.9439129,63.5373191 C40.9740061,59.1533021 42.5753208,54.0187963 42.5784443,48.6839005 C42.5815678,43.348855 40.9860539,38.2124022 37.9645875,33.8300327 L37.8978041,33.7329828 C34.5412306,28.8644655 32.7453664,23.1588932 32.7038685,17.2328621 C32.6625193,11.3066811 34.3785111,5.57609758 37.6665163,0.661002287 C38.1255221,-0.0247866497 39.0499296,-0.206455569 39.7311503,0.255579563 C40.4125197,0.717614696 40.5927903,1.64842453 40.1337844,2.33451301 C37.1819274,6.74713573 35.6414466,11.8913765 35.6786311,17.2117447 C35.7156669,22.5318134 37.3279883,27.654188 40.3412741,32.0245761 L40.4079088,32.1214762 C43.7775712,37.0087146 45.5566279,42.7364525 45.553207,48.6853982 C45.549786,54.6346435 43.764036,60.3601349 40.3891678,65.2431798 L40.3841107,65.250818 C40.0955587,65.6719663 39.6309008,65.8982662 39.1583597,65.8982662" id="Fill-10"></path>
                    <path d="M49.7559516,65.8982662 C49.4647224,65.8982662 49.1706671,65.812449 48.9129039,65.6333261 C48.2365916,65.1638026 48.0664352,64.2310458 48.532878,63.5500494 L48.5415048,63.5373191 C51.571598,59.1533021 53.1729127,54.0187963 53.1760362,48.6839005 C53.1791597,43.348855 51.5836458,38.2124022 48.5621794,33.8300327 L48.495396,33.7329828 C45.1388225,28.8644655 43.3429583,23.1588932 43.3014604,17.2328621 C43.2601112,11.3066811 44.976103,5.57609758 48.2641082,0.661002287 C48.723114,-0.0247866497 49.6475215,-0.206455569 50.3287422,0.255579563 C51.0101115,0.717614696 51.1903822,1.64842453 50.7313763,2.33451301 C47.7795193,6.74713573 46.2390385,11.8913765 46.276223,17.2117447 C46.3132588,22.5318134 47.9255802,27.654188 50.938866,32.0245761 L51.0055007,32.1214762 C54.375163,37.0087146 56.1542198,42.7364525 56.1507989,48.6853982 C56.1473779,54.6346435 54.3616279,60.3601349 50.9867597,65.2431798 L50.9817026,65.250818 C50.6931506,65.6719663 50.2284927,65.8982662 49.7559516,65.8982662" id="Fill-13"></path>
                </g>
                <g id="Group-4" transform="translate(0.000000, 2.000000)" fill="#FFBF00">
                    <path d="M15.4875016,37.442144 L1.50611723,37.442144 C0.684636532,37.442144 0.0187359166,36.7714816 0.0187359166,35.9444612 C0.0187359166,35.1174408 0.684636532,34.4467784 1.50611723,34.4467784 L15.4875016,34.4467784 C22.5406638,34.4467784 28.2789809,28.6688681 28.2789809,21.5667067 L28.2789809,1.49775765 C28.2789809,0.670737225 28.9448816,7.48842296e-05 29.7663623,7.48842296e-05 C30.587843,7.48842296e-05 31.2537436,0.670737225 31.2537436,1.49775765 L31.2537436,21.5667067 C31.2537436,30.3203629 24.1810967,37.442144 15.4875016,37.442144" id="Fill-32"></path>
                    <path d="M11.3228339,28.4560474 L1.50611723,28.4560474 C0.684636532,28.4560474 0.0187359166,27.785385 0.0187359166,26.9583646 C0.0187359166,26.1313442 0.684636532,25.4606818 1.50611723,25.4606818 L11.3228339,25.4606818 C15.7516605,25.4606818 19.354693,21.8325454 19.354693,17.3731949 L19.354693,1.49775765 C19.354693,0.670737225 20.0205937,7.48842296e-05 20.8420744,7.48842296e-05 C21.6635551,7.48842296e-05 22.3294557,0.670737225 22.3294557,1.49775765 L22.3294557,17.3731949 C22.3294557,23.4843397 17.3919447,28.4560474 11.3228339,28.4560474" id="Fill-34"></path>
                    <path d="M23.816837,55.4143371 L1.50611723,55.4143371 C0.684636532,55.4143371 0.0187359166,54.7436748 0.0187359166,53.9166543 C0.0187359166,53.0896339 0.684636532,52.4189716 1.50611723,52.4189716 L23.816837,52.4189716 C36.1189679,52.4189716 46.1275567,42.3410643 46.1275567,29.9537301 L46.1275567,1.49775765 C46.1275567,0.670737225 46.7934574,7.48842296e-05 47.6149381,7.48842296e-05 C48.4364188,7.48842296e-05 49.1023194,0.670737225 49.1023194,1.49775765 L49.1023194,29.9537301 C49.1023194,43.9927088 37.759252,55.4143371 23.816837,55.4143371" id="Fill-36"></path>
                    <path d="M19.6521693,46.4282405 L1.50611723,46.4282405 C0.684636532,46.4282405 0.0187359166,45.7575782 0.0187359166,44.9305578 C0.0187359166,44.1035373 0.684636532,43.432875 1.50611723,43.432875 L19.6521693,43.432875 C29.3298158,43.432875 37.2032688,35.5048913 37.2032688,25.7602184 L37.2032688,1.49775765 C37.2032688,0.670737225 37.8691695,7.48842296e-05 38.6906502,7.48842296e-05 C39.5121309,7.48842296e-05 40.1780315,0.670737225 40.1780315,1.49775765 L40.1780315,25.7602184 C40.1780315,37.1566856 30.9701,46.4282405 19.6521693,46.4282405" id="Fill-38"></path>
                    <path d="M27.9815047,64.4004337 L1.50611723,64.4004337 C0.684636532,64.4004337 0.0187359166,63.7297713 0.0187359166,62.9027509 C0.0187359166,62.0757305 0.684636532,61.4050682 1.50611723,61.4050682 L27.9815047,61.4050682 C42.9081199,61.4050682 55.0518446,49.1772372 55.0518446,34.1472419 L55.0518446,1.49775765 C55.0518446,0.670737225 55.7177453,7.48842297e-05 56.539226,7.48842297e-05 C57.3607067,7.48842297e-05 58.0266073,0.670737225 58.0266073,1.49775765 L58.0266073,34.1472419 C58.0266073,50.8288818 44.548404,64.4004337 27.9815047,64.4004337" id="Fill-40"></path>
                </g>
            </g>
        </g>
    </g>
</svg>
