
<svg width="63px" height="71px" viewBox="0 0 63 71" version="1.1" xmlns="http://www.w3.org/2000/svg" xmlns:xlink="http://www.w3.org/1999/xlink">
    <!-- Generator: Sketch 46.2 (44496) - http://www.bohemiancoding.com/sketch -->
    <desc>Created with Sketch.</desc>
    <defs></defs>
    <g id="Page-1" stroke="none" stroke-width="1" fill="none" fill-rule="evenodd">
        <g id="website" transform="translate(-312.000000, -46.000000)">
            <g id="Page-1" transform="translate(312.000000, 46.000000)">
                <g id="Group-37">
                    <path d="M14.2168265,61.6950915 L0.842071932,61.6950915 C0.419290644,61.6950915 0.0765798299,61.3499591 0.0765798299,60.9241903 C0.0765798299,60.4984216 0.419290644,60.1532891 0.842071932,60.1532891 L14.2168265,60.1532891 C17.0026819,60.1532891 19.2690744,57.870882 19.2690744,55.0653413 L19.2690744,52.9222359 C19.2690744,50.1166952 17.0026819,47.8342881 14.2168265,47.8342881 L0.842071932,47.8342881 C0.419290644,47.8342881 0.0765798299,47.4891556 0.0765798299,47.0633869 C0.0765798299,46.6376181 0.419290644,46.2924857 0.842071932,46.2924857 L14.2168265,46.2924857 C17.8468666,46.2924857 20.8000586,49.2665454 20.8000586,52.9222359 L20.8000586,55.0653413 C20.8000586,58.7209547 17.8468666,61.6950915 14.2168265,61.6950915" id="Fill-1" fill="#2274A5"></path>
                    <path d="M13.0763275,57.0748031 L0.842003038,57.0748031 C0.419298299,57.0748031 0.0765109356,56.7296707 0.0765109356,56.303902 C0.0765109356,55.8781332 0.419298299,55.5330008 0.842003038,55.5330008 L13.0763275,55.5330008 C13.9191343,55.5330008 14.6047855,54.8425046 14.6047855,53.9937423 C14.6047855,53.1450572 13.9191343,52.454561 13.0763275,52.454561 L0.842003038,52.454561 C0.419298299,52.454561 0.0765109356,52.1094286 0.0765109356,51.6836598 C0.0765109356,51.2578911 0.419298299,50.9127586 0.842003038,50.9127586 L13.0763275,50.9127586 C14.763319,50.9127586 16.1357697,52.2949074 16.1357697,53.9937423 C16.1357697,55.6926544 14.763319,57.0748031 13.0763275,57.0748031" id="Fill-3" fill="#2274A5"></path>
                    <path d="M14.7476646,66.3153414 L0.842041312,66.3153414 C0.419260024,66.3153414 0.0765492102,65.9702089 0.0765492102,65.5444402 C0.0765492102,65.1186714 0.419260024,64.773539 0.842041312,64.773539 L14.7476646,64.773539 C19.728339,64.773539 23.7804714,60.6927735 23.7804714,55.6769049 L23.7804714,52.3106106 C23.7804714,47.294742 19.728339,43.2139765 14.7476646,43.2139765 L0.842041312,43.2139765 C0.419260024,43.2139765 0.0765492102,42.8688441 0.0765492102,42.4430754 C0.0765492102,42.0173066 0.419260024,41.6721742 0.842041312,41.6721742 L14.7476646,41.6721742 C20.5725237,41.6721742 25.3114557,46.4445922 25.3114557,52.3106106 L25.3114557,55.6769049 C25.3114557,61.5429233 20.5725237,66.3153414 14.7476646,66.3153414" id="Fill-5" fill="#2274A5"></path>
                    <path d="M16.8859443,70.9356298 L0.842071932,70.9356298 C0.419290644,70.9356298 0.0765798299,70.5904973 0.0765798299,70.1647286 C0.0765798299,69.7389598 0.419290644,69.3938274 0.842071932,69.3938274 L16.8859443,69.3938274 C23.2173295,69.3938274 28.3683259,64.2064332 28.3683259,57.8303094 L28.3683259,50.1572215 C28.3683259,43.7810977 23.2173295,38.5937036 16.8859443,38.5937036 L0.842071932,38.5937036 C0.419290644,38.5937036 0.0765798299,38.2485711 0.0765798299,37.8228024 C0.0765798299,37.3970337 0.419290644,37.0519012 0.842071932,37.0519012 L16.8859443,37.0519012 C24.0615142,37.0519012 29.8993101,42.9309479 29.8993101,50.1572215 L29.8993101,57.8303094 C29.8993101,65.0565831 24.0615142,70.9356298 16.8859443,70.9356298" id="Fill-7" fill="#2274A5"></path>
                    <path d="M62.1663714,61.6950915 L48.7916169,61.6950915 C45.1615768,61.6950915 42.2083848,58.7209547 42.2083848,55.0653413 L42.2083848,52.9222359 C42.2083848,49.2665454 45.1615768,46.2924857 48.7916169,46.2924857 L62.1663714,46.2924857 C62.5891527,46.2924857 62.9318635,46.6376181 62.9318635,47.0633869 C62.9318635,47.4891556 62.5891527,47.8342881 62.1663714,47.8342881 L48.7916169,47.8342881 C46.0057615,47.8342881 43.739369,50.1166952 43.739369,52.9222359 L43.739369,55.0653413 C43.739369,57.870882 46.0057615,60.1532891 48.7916169,60.1532891 L62.1663714,60.1532891 C62.5891527,60.1532891 62.9318635,60.4984216 62.9318635,60.9241903 C62.9318635,61.3499591 62.5891527,61.6950915 62.1663714,61.6950915" id="Fill-9" fill="#32936F"></path>
                    <path d="M62.1663714,57.0748031 L49.9321236,57.0748031 C48.2451321,57.0748031 46.8726813,55.6926544 46.8726813,53.9937423 C46.8726813,52.2949074 48.2451321,50.9127586 49.9321236,50.9127586 L62.1663714,50.9127586 C62.5891527,50.9127586 62.9318635,51.2578911 62.9318635,51.6836598 C62.9318635,52.1094286 62.5891527,52.454561 62.1663714,52.454561 L49.9321236,52.454561 C49.0893168,52.454561 48.4036655,53.1450572 48.4036655,53.9937423 C48.4036655,54.8425046 49.0893168,55.5330008 49.9321236,55.5330008 L62.1663714,55.5330008 C62.5891527,55.5330008 62.9318635,55.8781332 62.9318635,56.303902 C62.9318635,56.7296707 62.5891527,57.0748031 62.1663714,57.0748031" id="Fill-11" fill="#32936F"></path>
                    <path d="M62.1663714,66.3153414 L48.2607481,66.3153414 C42.4358891,66.3153414 37.6969571,61.5429233 37.6969571,55.6769049 L37.6969571,52.3106106 C37.6969571,46.4445922 42.4358891,41.6721742 48.2607481,41.6721742 L62.1663714,41.6721742 C62.5891527,41.6721742 62.9318635,42.0173066 62.9318635,42.4430754 C62.9318635,42.8688441 62.5891527,43.2139765 62.1663714,43.2139765 L48.2607481,43.2139765 C43.2800738,43.2139765 39.2279413,47.294742 39.2279413,52.3106106 L39.2279413,55.6769049 C39.2279413,60.6927735 43.2800738,64.773539 48.2607481,64.773539 L62.1663714,64.773539 C62.5891527,64.773539 62.9318635,65.1186714 62.9318635,65.5444402 C62.9318635,65.9702089 62.5891527,66.3153414 62.1663714,66.3153414" id="Fill-13" fill="#32936F"></path>
                    <path d="M62.1663714,70.9356298 L46.122499,70.9356298 C38.9468526,70.9356298 33.1091333,65.0565831 33.1091333,57.8303094 L33.1091333,50.1572215 C33.1091333,42.9309479 38.9468526,37.0519012 46.122499,37.0519012 L62.1663714,37.0519012 C62.5891527,37.0519012 62.9318635,37.3970337 62.9318635,37.8228024 C62.9318635,38.2485711 62.5891527,38.5937036 62.1663714,38.5937036 L46.122499,38.5937036 C39.7910373,38.5937036 34.6401175,43.7810977 34.6401175,50.1572215 L34.6401175,57.8303094 C34.6401175,64.2064332 39.7910373,69.3938274 46.122499,69.3938274 L62.1663714,69.3938274 C62.5891527,69.3938274 62.9318635,69.7389598 62.9318635,70.1647286 C62.9318635,70.5904973 62.5891527,70.9356298 62.1663714,70.9356298" id="Fill-15" fill="#32936F"></path>
                    <path d="M42.234534,33.8194123 C42.0833493,33.8194123 41.9306337,33.7743916 41.7972084,33.6806501 C41.4504405,33.4370453 41.3654708,32.9565426 41.6074429,32.6073243 L41.6118827,32.6008488 C43.1672096,30.3502798 43.9903433,27.787573 43.9919508,25.0447065 C43.9934818,22.3019172 43.1733335,19.661118 41.6202266,17.4080051 L41.5857795,17.3580507 C39.8601306,14.8548574 38.936794,11.9210388 38.9155899,8.8739747 C38.8943092,5.82683355 39.7765389,2.88029501 41.4669751,0.35297253 C41.7031294,-0.000177307274 42.1787296,-0.0936876221 42.5294781,0.144212486 C42.8801501,0.382112595 42.9729277,0.861150597 42.7367734,1.21430043 C41.2193384,3.48290847 40.4274368,6.12787047 40.4464976,8.86310499 C40.4656349,11.5983395 41.2944332,14.2318151 42.8433299,16.4787608 L42.8777005,16.5286381 C44.6100091,19.0415447 45.5246191,21.9866957 45.522935,25.0456316 C45.5211744,28.1045675 44.6030431,30.9715491 42.8679787,33.4822972 L42.863003,33.4895436 C42.7141914,33.7043167 42.4762764,33.8194123 42.234534,33.8194123" id="Fill-17" fill="#E83F6F"></path>
                    <path d="M36.4284525,33.8194123 C36.2762727,33.8194123 36.1226384,33.773852 35.9886773,33.6789541 C35.6429045,33.4339617 35.5597721,32.9530735 35.8030454,32.6048574 L35.8075618,32.5983819 C37.3611281,30.3502798 38.1842617,27.787573 38.1858693,25.0447065 C38.1874002,22.3019172 37.367252,19.661118 35.8141451,17.4080051 L35.7796979,17.3580507 C34.0540491,14.8548574 33.1307125,11.9210388 33.1095084,8.8739747 C33.0882277,5.82683355 33.9704574,2.88029501 35.6608936,0.35297253 C35.8970479,-0.000177307274 36.3726481,-0.0936876221 36.7233966,0.144212486 C37.0740685,0.382112595 37.1668462,0.861150597 36.9306919,1.21430043 C35.4132569,3.48290847 34.6213553,6.12787047 34.640416,8.86310499 C34.6595533,11.5983395 35.4883516,14.2318151 37.0372484,16.4787608 L37.071619,16.5286381 C38.8039276,19.0415447 39.7185375,21.9866186 39.7168535,25.0456316 C39.7150928,28.1045675 38.7970382,30.9715491 37.0619738,33.4822972 L37.0552374,33.4920105 C36.9061961,33.7053189 36.6691998,33.8194123 36.4284525,33.8194123" id="Fill-19" fill="#E83F6F"></path>
                    <path d="M48.0406079,33.8194123 C47.8894232,33.8194123 47.7367075,33.7743916 47.6032823,33.6806501 C47.2565143,33.4370453 47.1715447,32.9565426 47.4135168,32.6073243 L47.4179566,32.6008488 C48.9732835,30.3502798 49.7964171,27.787573 49.7980247,25.0447065 C49.7995557,22.3019172 48.9794074,19.661118 47.4263005,17.4080051 L47.3918533,17.3580507 C45.6662045,14.8548574 44.7428679,11.9210388 44.7216638,8.8739747 C44.7003831,5.82683355 45.5826128,2.88029501 47.273049,0.35297253 C47.5092033,-0.000177307274 47.9848035,-0.0936876221 48.335552,0.144212486 C48.6862239,0.382112595 48.7790016,0.861150597 48.5428473,1.21430043 C47.0254123,3.48290847 46.2335107,6.12787047 46.2525714,8.86310499 C46.2717087,11.5983395 47.100507,14.2318151 48.6494038,16.4787608 L48.6837744,16.5286381 C50.416083,19.0415447 51.330693,21.9866957 51.3290089,25.0456316 C51.3272482,28.1045675 50.409117,30.9715491 48.6740526,33.4822972 L48.6690769,33.4895436 C48.5202652,33.7043167 48.2823503,33.8194123 48.0406079,33.8194123" id="Fill-21" fill="#E83F6F"></path>
                    <path d="M53.8467277,33.8194123 C53.695543,33.8194123 53.5428273,33.7743916 53.4094021,33.6806501 C53.0627107,33.4370453 52.9776645,32.9565426 53.2196366,32.6073243 L53.2240764,32.6008488 C54.7793267,30.3502798 55.6025369,27.787573 55.6040679,25.0447065 C55.6056755,22.3019172 54.7855272,19.661118 53.2323437,17.4080051 L53.1978966,17.3580507 C51.4723243,14.8548574 50.5489877,11.9210388 50.527707,8.8739747 C50.5064264,5.82683355 51.3887326,2.88029501 53.0790922,0.35297253 C53.3152465,-0.000177307274 53.7909233,-0.0936876221 54.1416718,0.144212486 C54.4922672,0.382112595 54.5851214,0.861150597 54.3488905,1.21430043 C52.8315321,3.48290847 52.0395539,6.12787047 52.0586913,8.86310499 C52.077752,11.5983395 52.9065503,14.2318151 54.4555236,16.4787608 L54.4898942,16.5286381 C56.2221262,19.0415447 57.1368128,21.9866186 57.1350521,25.0456316 C57.1332915,28.1045675 56.2152368,30.9715491 54.4801724,33.4822972 L54.4751967,33.4895436 C54.3263851,33.7043167 54.0884701,33.8194123 53.8467277,33.8194123" id="Fill-23" fill="#E83F6F"></path>
                    <path d="M59.6528016,33.8194123 C59.5016169,33.8194123 59.3489012,33.7743916 59.2154759,33.6806501 C58.8687846,33.4370453 58.7837384,32.9565426 59.0257104,32.6073243 L59.0301503,32.6008488 C60.5854006,30.3502798 61.4086108,27.787573 61.4101418,25.0447065 C61.4117493,22.3019172 60.5916011,19.661118 59.0384176,17.4080051 L59.0039705,17.3580507 C57.2783982,14.8548574 56.3550616,11.9210388 56.3337809,8.8739747 C56.3125002,5.82683355 57.1948064,2.88029501 58.8851661,0.35297253 C59.1213204,-0.000177307274 59.5969972,-0.0936876221 59.9477457,0.144212486 C60.2983411,0.382112595 60.3911953,0.861150597 60.1549644,1.21430043 C58.637606,3.48290847 57.8456278,6.12787047 57.8647651,8.86310499 C57.8838259,11.5983395 58.7126242,14.2318151 60.2615974,16.4787608 L60.295968,16.5286381 C62.0282001,19.0415447 62.9428866,21.9866186 62.941126,25.0456316 C62.9393654,28.1045675 62.0213107,30.9715491 60.2862463,33.4822972 L60.2812706,33.4895436 C60.1324589,33.7043167 59.894544,33.8194123 59.6528016,33.8194123" id="Fill-25" fill="#E83F6F"></path>
                    <path d="M8.0979955,19.9585857 L0.841972418,19.9585857 C0.41919113,19.9585857 0.0764803159,19.6134532 0.0764803159,19.1876845 C0.0764803159,18.7619157 0.41919113,18.4167833 0.841972418,18.4167833 L8.0979955,18.4167833 C11.7280356,18.4167833 14.6812276,15.4426465 14.6812276,11.787033 L14.6812276,0.823199131 C14.6812276,0.397430402 15.0239384,0.052297937 15.4467197,0.052297937 C15.869501,0.052297937 16.2122118,0.397430402 16.2122118,0.823199131 L16.2122118,11.787033 C16.2122118,16.2928734 12.5721437,19.9585857 8.0979955,19.9585857" id="Fill-27" fill="#FFBF00"></path>
                    <path d="M5.95970049,15.3383358 L0.841926488,15.3383358 C0.4191452,15.3383358 0.0764343864,14.9932034 0.0764343864,14.5674346 C0.0764343864,14.1416659 0.4191452,13.7965334 0.841926488,13.7965334 L5.95970049,13.7965334 C8.23902977,13.7965334 10.0933578,11.9291024 10.0933578,9.63366699 L10.0933578,0.823191422 C10.0933578,0.397422693 10.4360687,0.052290228 10.8588499,0.052290228 C11.2816312,0.052290228 11.624342,0.397422693 11.624342,0.823191422 L11.624342,9.63366699 C11.624342,12.7792522 9.08321446,15.3383358 5.95970049,15.3383358" id="Fill-29" fill="#FFBF00"></path>
                    <path d="M12.3745473,29.1991239 L0.841949453,29.1991239 C0.419168165,29.1991239 0.0764573512,28.8539914 0.0764573512,28.4282227 C0.0764573512,28.002454 0.419168165,27.6573215 0.841949453,27.6573215 L12.3745473,27.6573215 C18.7059324,27.6573215 23.8569288,22.4699274 23.8569288,16.0938036 L23.8569288,0.823253094 C23.8569288,0.397407275 24.1996396,0.0523519001 24.6224209,0.0523519001 C25.0452022,0.0523519001 25.387913,0.397407275 25.387913,0.823253094 L25.387913,16.0938036 C25.387913,23.3200772 19.5501171,29.1991239 12.3745473,29.1991239" id="Fill-31" fill="#FFBF00"></path>
                    <path d="M10.2362676,24.578874 L0.841918834,24.578874 C0.419137546,24.578874 0.0764267315,24.2337416 0.0764267315,23.8079729 C0.0764267315,23.3822041 0.419137546,23.0370717 0.841918834,23.0370717 L10.2362676,23.0370717 C15.2169419,23.0370717 19.2690744,18.9563062 19.2690744,13.9404376 L19.2690744,0.823245385 C19.2690744,0.397399566 19.6117852,0.0523441911 20.0345665,0.0523441911 C20.4573478,0.0523441911 20.8000586,0.397399566 20.8000586,0.823245385 L20.8000586,13.9404376 C20.8000586,19.806456 16.0612032,24.578874 10.2362676,24.578874" id="Fill-33" fill="#FFBF00"></path>
                    <path d="M14.5128193,33.8194123 L0.841972418,33.8194123 C0.41919113,33.8194123 0.0764803159,33.4742798 0.0764803159,33.0485111 C0.0764803159,32.6227423 0.41919113,32.2776099 0.841972418,32.2776099 L14.5128193,32.2776099 C22.1949153,32.2776099 28.4447756,25.9835871 28.4447756,18.2472081 L28.4447756,0.823222258 C28.4447756,0.397453529 28.7874864,0.0523210641 29.2102677,0.0523210641 C29.633049,0.0523210641 29.9757598,0.397453529 29.9757598,0.823222258 L29.9757598,18.2472081 C29.9757598,26.8337369 23.0391,33.8194123 14.5128193,33.8194123" id="Fill-35" fill="#FFBF00"></path>
                </g>
            </g>
        </g>
    </g>
</svg>
